<svg xmlns="http://www.w3.org/2000/svg" xmlns:xlink="http://www.w3.org/1999/xlink" contentStyleType="text/css" data-diagram-type="SEQUENCE" height="1913px" preserveAspectRatio="none" style="width:1076px;height:1913px;background:#FFFFFF;" version="1.1" viewBox="0 0 1076 1913" width="1076px" zoomAndPan="magnify"><title>Call Service Process Flow</title><defs/><g><text fill="#000000" font-family="sans-serif" font-size="14" font-weight="bold" lengthAdjust="spacing" textLength="200.2998" x="434.0056" y="40.6357">Call Service Process Flow</text><g><title>CallService</title><rect fill="#FFFFFF" height="1520.5" style="stroke:#181818;stroke-width:1;" width="10" x="342.4702" y="228.1641"/></g><g><title>GuzzleClient</title><rect fill="#FFFFFF" height="153.9297" style="stroke:#181818;stroke-width:1;" width="10" x="880.1978" y="1310.0078"/></g><rect fill="#FFFFFF" fill-opacity="0.00000" height="140.7969" style="stroke:#000000;stroke-width:1.5;" width="860.7661" x="19" y="337.6953"/><rect fill="#FFFFFF" fill-opacity="0.00000" height="125.6641" style="stroke:#000000;stroke-width:1.5;" width="870.9731" x="19" y="521.625"/><rect fill="#FFFFFF" fill-opacity="0.00000" height="155.9297" style="stroke:#000000;stroke-width:1.5;" width="814.0728" x="19" y="784.9531"/><g><title>Application</title><rect fill="#FFFFFF" fill-opacity="0.00000" height="1776.0938" width="8" x="71.1118" y="86.2344"/><line style="stroke:#181818;stroke-width:0.5;stroke-dasharray:5.0,5.0;" x1="75" x2="75" y1="86.2344" y2="1862.3281"/></g><g><title>CallService</title><rect fill="#FFFFFF" fill-opacity="0.00000" height="1776.0938" width="8" x="343.4702" y="86.2344"/><line style="stroke:#181818;stroke-width:0.5;stroke-dasharray:5.0,5.0;" x1="346.5327" x2="346.5327" y1="86.2344" y2="1862.3281"/></g><g><title>Source</title><rect fill="#FFFFFF" fill-opacity="0.00000" height="1776.0938" width="8" x="535.897" y="86.2344"/><line style="stroke:#181818;stroke-width:0.5;stroke-dasharray:5.0,5.0;" x1="539.7012" x2="539.7012" y1="86.2344" y2="1862.3281"/></g><g><title>CallLogMapper</title><rect fill="#FFFFFF" fill-opacity="0.00000" height="1776.0938" width="8" x="636.186" y="86.2344"/><line style="stroke:#181818;stroke-width:0.5;stroke-dasharray:5.0,5.0;" x1="640.0928" x2="640.0928" y1="86.2344" y2="1862.3281"/></g><g><title>SourceMapper</title><rect fill="#FFFFFF" fill-opacity="0.00000" height="1776.0938" width="8" x="762.8755" y="86.2344"/><line style="stroke:#181818;stroke-width:0.5;stroke-dasharray:5.0,5.0;" x1="766.2793" x2="766.2793" y1="86.2344" y2="1862.3281"/></g><g><title>GuzzleClient</title><rect fill="#FFFFFF" fill-opacity="0.00000" height="1776.0938" width="8" x="881.1978" y="86.2344"/><line style="stroke:#181818;stroke-width:0.5;stroke-dasharray:5.0,5.0;" x1="884.4717" x2="884.4717" y1="86.2344" y2="1862.3281"/></g><g><title>External API</title><rect fill="#FFFFFF" fill-opacity="0.00000" height="1776.0938" width="8" x="1010.8462" y="86.2344"/><line style="stroke:#181818;stroke-width:0.5;stroke-dasharray:5.0,5.0;" x1="1014.3813" x2="1014.3813" y1="86.2344" y2="1862.3281"/></g><g><rect fill="#E2E2F0" height="30.2969" rx="2.5" ry="2.5" style="stroke:#181818;stroke-width:0.5;" width="92.2236" x="29" y="54.9375"/><text fill="#000000" font-family="sans-serif" font-size="14" lengthAdjust="spacing" textLength="78.2236" x="36" y="74.9326">Application</text></g><g><rect fill="#E2E2F0" height="30.2969" rx="2.5" ry="2.5" style="stroke:#181818;stroke-width:0.5;" width="92.2236" x="29" y="1861.3281"/><text fill="#000000" font-family="sans-serif" font-size="14" lengthAdjust="spacing" textLength="78.2236" x="36" y="1881.3232">Application</text></g><g><rect fill="#E2E2F0" height="30.2969" rx="2.5" ry="2.5" style="stroke:#181818;stroke-width:0.5;" width="91.875" x="301.5327" y="54.9375"/><text fill="#000000" font-family="sans-serif" font-size="14" lengthAdjust="spacing" textLength="77.875" x="308.5327" y="74.9326">CallService</text></g><g><rect fill="#E2E2F0" height="30.2969" rx="2.5" ry="2.5" style="stroke:#181818;stroke-width:0.5;" width="91.875" x="301.5327" y="1861.3281"/><text fill="#000000" font-family="sans-serif" font-size="14" lengthAdjust="spacing" textLength="77.875" x="308.5327" y="1881.3232">CallService</text></g><g><rect fill="#E2E2F0" height="30.2969" rx="2.5" ry="2.5" style="stroke:#181818;stroke-width:0.5;" width="62.3916" x="508.7012" y="54.9375"/><text fill="#000000" font-family="sans-serif" font-size="14" lengthAdjust="spacing" textLength="48.3916" x="515.7012" y="74.9326">Source</text></g><g><rect fill="#E2E2F0" height="30.2969" rx="2.5" ry="2.5" style="stroke:#181818;stroke-width:0.5;" width="62.3916" x="508.7012" y="1861.3281"/><text fill="#000000" font-family="sans-serif" font-size="14" lengthAdjust="spacing" textLength="48.3916" x="515.7012" y="1881.3232">Source</text></g><g><rect fill="#E2E2F0" height="30.2969" rx="2.5" ry="2.5" style="stroke:#181818;stroke-width:0.5;" width="118.1865" x="581.0928" y="54.9375"/><text fill="#000000" font-family="sans-serif" font-size="14" lengthAdjust="spacing" textLength="104.1865" x="588.0928" y="74.9326">CallLogMapper</text></g><g><rect fill="#E2E2F0" height="30.2969" rx="2.5" ry="2.5" style="stroke:#181818;stroke-width:0.5;" width="118.1865" x="581.0928" y="1861.3281"/><text fill="#000000" font-family="sans-serif" font-size="14" lengthAdjust="spacing" textLength="104.1865" x="588.0928" y="1881.3232">CallLogMapper</text></g><g><rect fill="#E2E2F0" height="30.2969" rx="2.5" ry="2.5" style="stroke:#181818;stroke-width:0.5;" width="115.1924" x="709.2793" y="54.9375"/><text fill="#000000" font-family="sans-serif" font-size="14" lengthAdjust="spacing" textLength="101.1924" x="716.2793" y="74.9326">SourceMapper</text></g><g><rect fill="#E2E2F0" height="30.2969" rx="2.5" ry="2.5" style="stroke:#181818;stroke-width:0.5;" width="115.1924" x="709.2793" y="1861.3281"/><text fill="#000000" font-family="sans-serif" font-size="14" lengthAdjust="spacing" textLength="101.1924" x="716.2793" y="1881.3232">SourceMapper</text></g><g><rect fill="#E2E2F0" height="30.2969" rx="2.5" ry="2.5" style="stroke:#181818;stroke-width:0.5;" width="101.4521" x="834.4717" y="54.9375"/><text fill="#000000" font-family="sans-serif" font-size="14" lengthAdjust="spacing" textLength="87.4521" x="841.4717" y="74.9326">GuzzleClient</text></g><g><rect fill="#E2E2F0" height="30.2969" rx="2.5" ry="2.5" style="stroke:#181818;stroke-width:0.5;" width="101.4521" x="834.4717" y="1861.3281"/><text fill="#000000" font-family="sans-serif" font-size="14" lengthAdjust="spacing" textLength="87.4521" x="841.4717" y="1881.3232">GuzzleClient</text></g><g><rect fill="#E2E2F0" height="30.2969" rx="2.5" ry="2.5" style="stroke:#181818;stroke-width:0.5;" width="98.9297" x="965.3813" y="54.9375"/><text fill="#000000" font-family="sans-serif" font-size="14" lengthAdjust="spacing" textLength="84.9297" x="972.3813" y="74.9326">External API</text></g><g><rect fill="#E2E2F0" height="30.2969" rx="2.5" ry="2.5" style="stroke:#181818;stroke-width:0.5;" width="98.9297" x="965.3813" y="1861.3281"/><text fill="#000000" font-family="sans-serif" font-size="14" lengthAdjust="spacing" textLength="84.9297" x="972.3813" y="1881.3232">External API</text></g><g><title>CallService</title><rect fill="#FFFFFF" height="1520.5" style="stroke:#181818;stroke-width:1;" width="10" x="342.4702" y="228.1641"/></g><g><title>GuzzleClient</title><rect fill="#FFFFFF" height="153.9297" style="stroke:#181818;stroke-width:1;" width="10" x="880.1978" y="1310.0078"/></g><path d="M5,101.2344 L5,201.2344 L418,201.2344 L418,111.2344 L408,101.2344 L5,101.2344 " fill="#FEFFDD" style="stroke:#181818;stroke-width:0.5;"/><path d="M408,101.2344 L408,111.2344 L418,111.2344 L408,101.2344 " fill="#FEFFDD" style="stroke:#181818;stroke-width:0.5;"/><text fill="#000000" font-family="sans-serif" font-size="13" lengthAdjust="spacing" textLength="392.6152" x="11" y="118.3013">The call function is the main entry point for making API calls</text><text fill="#000000" font-family="sans-serif" font-size="13" lengthAdjust="spacing" textLength="79.3711" x="11" y="133.4341">Parameters:</text><text fill="#000000" font-family="sans-serif" font-size="13" lengthAdjust="spacing" textLength="345.6108" x="11" y="148.5669">- source: Source object containing connection details</text><text fill="#000000" font-family="sans-serif" font-size="13" lengthAdjust="spacing" textLength="255.7026" x="11" y="163.6997">- endpoint: Specific API endpoint to call</text><text fill="#000000" font-family="sans-serif" font-size="13" lengthAdjust="spacing" textLength="271.0449" x="11" y="178.8325">- method: HTTP method (GET, POST, etc.)</text><text fill="#000000" font-family="sans-serif" font-size="13" lengthAdjust="spacing" textLength="264.9829" x="11" y="193.9653">- config: Additional configuration options</text><g><polygon fill="#181818" points="330.4702,224.1641,340.4702,228.1641,330.4702,232.1641,334.4702,228.1641" style="stroke:#181818;stroke-width:1;"/><line style="stroke:#181818;stroke-width:1;" x1="75.1118" x2="336.4702" y1="228.1641" y2="228.1641"/><text fill="#000000" font-family="sans-serif" font-size="13" lengthAdjust="spacing" textLength="248.3584" x="84.6118" y="223.0981">call(source, endpoint, method, config)</text></g><path d="M357,241.1641 L357,296.1641 L656,296.1641 L656,251.1641 L646,241.1641 L357,241.1641 " fill="#FEFFDD" style="stroke:#181818;stroke-width:0.5;"/><path d="M646,241.1641 L646,251.1641 L656,251.1641 L646,241.1641 " fill="#FEFFDD" style="stroke:#181818;stroke-width:0.5;"/><text fill="#000000" font-family="sans-serif" font-size="13" lengthAdjust="spacing" textLength="151.8486" x="363" y="258.231">Initial validation phase:</text><text fill="#000000" font-family="sans-serif" font-size="13" lengthAdjust="spacing" textLength="278.9858" x="363" y="273.3638">Checks if the source is properly configured</text><text fill="#000000" font-family="sans-serif" font-size="13" lengthAdjust="spacing" textLength="136.4175" x="363" y="288.4966">and available for use</text><g><polygon fill="#181818" points="527.897,318.6953,537.897,322.6953,527.897,326.6953,531.897,322.6953" style="stroke:#181818;stroke-width:1;"/><line style="stroke:#181818;stroke-width:1;" x1="352.4702" x2="533.897" y1="322.6953" y2="322.6953"/><text fill="#000000" font-family="sans-serif" font-size="13" lengthAdjust="spacing" textLength="94.6309" x="398.8682" y="317.6294">getIsEnabled()</text></g><path d="M19,337.6953 L83.4429,337.6953 L83.4429,344.8281 L73.4429,354.8281 L19,354.8281 L19,337.6953 " fill="#EEEEEE" style="stroke:#000000;stroke-width:1.5;"/><rect fill="#FFFFFF" fill-opacity="0.00000" height="140.7969" style="stroke:#000000;stroke-width:1.5;" width="860.7661" x="19" y="337.6953"/><text fill="#000000" font-family="sans-serif" font-size="13" font-weight="bold" lengthAdjust="spacing" textLength="19.4429" x="34" y="350.7622">alt</text><text fill="#000000" font-family="sans-serif" font-size="11" font-weight="bold" lengthAdjust="spacing" textLength="129.395" x="98.4429" y="349.9058">[source not enabled]</text><g><polygon fill="#181818" points="628.186,371.9609,638.186,375.9609,628.186,379.9609,632.186,375.9609" style="stroke:#181818;stroke-width:1;"/><line style="stroke:#181818;stroke-width:1;" x1="352.4702" x2="634.186" y1="375.9609" y2="375.9609"/><text fill="#000000" font-family="sans-serif" font-size="13" lengthAdjust="spacing" textLength="92.9932" x="449.8315" y="370.895">insert(callLog)</text></g><path d="M645,388.9609 L645,443.9609 L869,443.9609 L869,398.9609 L859,388.9609 L645,388.9609 " fill="#FEFFDD" style="stroke:#181818;stroke-width:0.5;"/><path d="M859,388.9609 L859,398.9609 L869,398.9609 L859,388.9609 " fill="#FEFFDD" style="stroke:#181818;stroke-width:0.5;"/><text fill="#000000" font-family="sans-serif" font-size="13" lengthAdjust="spacing" textLength="198.6118" x="651" y="406.0278">Log failed attempts to prevent</text><text fill="#000000" font-family="sans-serif" font-size="13" lengthAdjust="spacing" textLength="203.7661" x="651" y="421.1606">debugging issues and maintain</text><text fill="#000000" font-family="sans-serif" font-size="13" lengthAdjust="spacing" textLength="62.9307" x="651" y="436.2935">audit trail</text><g><polygon fill="#181818" points="86.1118,466.4922,76.1118,470.4922,86.1118,474.4922,82.1118,470.4922" style="stroke:#181818;stroke-width:1;"/><line style="stroke:#181818;stroke-width:1;stroke-dasharray:2.0,2.0;" x1="80.1118" x2="341.4702" y1="470.4922" y2="470.4922"/><text fill="#000000" font-family="sans-serif" font-size="13" lengthAdjust="spacing" textLength="90.1812" x="163.7004" y="465.4263">return callLog</text></g><g><polygon fill="#181818" points="527.897,502.625,537.897,506.625,527.897,510.625,531.897,506.625" style="stroke:#181818;stroke-width:1;"/><line style="stroke:#181818;stroke-width:1;" x1="352.4702" x2="533.897" y1="506.625" y2="506.625"/><text fill="#000000" font-family="sans-serif" font-size="13" lengthAdjust="spacing" textLength="86.7026" x="402.8323" y="501.5591">getLocation()</text></g><path d="M19,521.625 L83.4429,521.625 L83.4429,528.7578 L73.4429,538.7578 L19,538.7578 L19,521.625 " fill="#EEEEEE" style="stroke:#000000;stroke-width:1.5;"/><rect fill="#FFFFFF" fill-opacity="0.00000" height="125.6641" style="stroke:#000000;stroke-width:1.5;" width="870.9731" x="19" y="521.625"/><text fill="#000000" font-family="sans-serif" font-size="13" font-weight="bold" lengthAdjust="spacing" textLength="19.4429" x="34" y="534.6919">alt</text><text fill="#000000" font-family="sans-serif" font-size="11" font-weight="bold" lengthAdjust="spacing" textLength="78.9604" x="98.4429" y="533.8354">[no location]</text><g><polygon fill="#181818" points="628.186,555.8906,638.186,559.8906,628.186,563.8906,632.186,559.8906" style="stroke:#181818;stroke-width:1;"/><line style="stroke:#181818;stroke-width:1;" x1="352.4702" x2="634.186" y1="559.8906" y2="559.8906"/><text fill="#000000" font-family="sans-serif" font-size="13" lengthAdjust="spacing" textLength="92.9932" x="449.8315" y="554.8247">insert(callLog)</text></g><path d="M645,572.8906 L645,612.8906 L879,612.8906 L879,582.8906 L869,572.8906 L645,572.8906 " fill="#FEFFDD" style="stroke:#181818;stroke-width:0.5;"/><path d="M869,572.8906 L869,582.8906 L879,582.8906 L869,572.8906 " fill="#FEFFDD" style="stroke:#181818;stroke-width:0.5;"/><text fill="#000000" font-family="sans-serif" font-size="13" lengthAdjust="spacing" textLength="213.9731" x="651" y="589.9575">A source without location cannot</text><text fill="#000000" font-family="sans-serif" font-size="13" lengthAdjust="spacing" textLength="207.1875" x="651" y="605.0903">be called - log error for tracking</text><g><polygon fill="#181818" points="86.1118,635.2891,76.1118,639.2891,86.1118,643.2891,82.1118,639.2891" style="stroke:#181818;stroke-width:1;"/><line style="stroke:#181818;stroke-width:1;stroke-dasharray:2.0,2.0;" x1="80.1118" x2="341.4702" y1="639.2891" y2="639.2891"/><text fill="#000000" font-family="sans-serif" font-size="13" lengthAdjust="spacing" textLength="90.1812" x="163.7004" y="634.2231">return callLog</text></g><path d="M215,659.2891 L215,714.2891 L478,714.2891 L478,669.2891 L468,659.2891 L215,659.2891 " fill="#FEFFDD" style="stroke:#181818;stroke-width:0.5;"/><path d="M468,659.2891 L468,669.2891 L478,669.2891 L468,659.2891 " fill="#FEFFDD" style="stroke:#181818;stroke-width:0.5;"/><text fill="#000000" font-family="sans-serif" font-size="13" lengthAdjust="spacing" textLength="130.6665" x="221" y="676.356">Rate limiting phase:</text><text fill="#000000" font-family="sans-serif" font-size="13" lengthAdjust="spacing" textLength="242.9058" x="221" y="691.4888">Prevents overwhelming external APIs</text><text fill="#000000" font-family="sans-serif" font-size="13" lengthAdjust="spacing" textLength="166.8354" x="221" y="706.6216">and respects usage limits</text><g><polygon fill="#181818" points="527.897,736.8203,537.897,740.8203,527.897,744.8203,531.897,740.8203" style="stroke:#181818;stroke-width:1;"/><line style="stroke:#181818;stroke-width:1;" x1="352.4702" x2="533.897" y1="740.8203" y2="740.8203"/><text fill="#000000" font-family="sans-serif" font-size="13" lengthAdjust="spacing" textLength="130.7109" x="380.8281" y="735.7544">getRateLimitReset()</text></g><g><polygon fill="#181818" points="527.897,765.9531,537.897,769.9531,527.897,773.9531,531.897,769.9531" style="stroke:#181818;stroke-width:1;"/><line style="stroke:#181818;stroke-width:1;" x1="352.4702" x2="533.897" y1="769.9531" y2="769.9531"/><text fill="#000000" font-family="sans-serif" font-size="13" lengthAdjust="spacing" textLength="163.4268" x="364.4702" y="764.8872">getRateLimitRemaining()</text></g><path d="M19,784.9531 L83.4429,784.9531 L83.4429,792.0859 L73.4429,802.0859 L19,802.0859 L19,784.9531 " fill="#EEEEEE" style="stroke:#000000;stroke-width:1.5;"/><rect fill="#FFFFFF" fill-opacity="0.00000" height="155.9297" style="stroke:#000000;stroke-width:1.5;" width="814.0728" x="19" y="784.9531"/><text fill="#000000" font-family="sans-serif" font-size="13" font-weight="bold" lengthAdjust="spacing" textLength="19.4429" x="34" y="798.02">alt</text><text fill="#000000" font-family="sans-serif" font-size="11" font-weight="bold" lengthAdjust="spacing" textLength="130.5176" x="98.4429" y="797.1636">[rate limit exceeded]</text><g><polygon fill="#181818" points="628.186,819.2188,638.186,823.2188,628.186,827.2188,632.186,823.2188" style="stroke:#181818;stroke-width:1;"/><line style="stroke:#181818;stroke-width:1;" x1="352.4702" x2="634.186" y1="823.2188" y2="823.2188"/><text fill="#000000" font-family="sans-serif" font-size="13" lengthAdjust="spacing" textLength="92.9932" x="449.8315" y="818.1528">insert(callLog)</text></g><path d="M645,836.2188 L645,906.2188 L823,906.2188 L823,846.2188 L813,836.2188 L645,836.2188 " fill="#FEFFDD" style="stroke:#181818;stroke-width:0.5;"/><path d="M813,836.2188 L813,846.2188 L823,846.2188 L813,836.2188 " fill="#FEFFDD" style="stroke:#181818;stroke-width:0.5;"/><text fill="#000000" font-family="sans-serif" font-size="13" lengthAdjust="spacing" textLength="121.8433" x="651" y="853.2856">Rate limits can be:</text><text fill="#000000" font-family="sans-serif" font-size="13" lengthAdjust="spacing" textLength="140.7402" x="651" y="868.4185">1. Set by external API</text><text fill="#000000" font-family="sans-serif" font-size="13" lengthAdjust="spacing" textLength="152.2041" x="651" y="883.5513">2. Configured manually</text><text fill="#000000" font-family="sans-serif" font-size="13" lengthAdjust="spacing" textLength="157.0728" x="651" y="898.6841">3. Dynamically adjusted</text><g><polygon fill="#181818" points="86.1118,928.8828,76.1118,932.8828,86.1118,936.8828,82.1118,932.8828" style="stroke:#181818;stroke-width:1;"/><line style="stroke:#181818;stroke-width:1;stroke-dasharray:2.0,2.0;" x1="80.1118" x2="341.4702" y1="932.8828" y2="932.8828"/><text fill="#000000" font-family="sans-serif" font-size="13" lengthAdjust="spacing" textLength="90.1812" x="163.7004" y="927.8169">return callLog</text></g><path d="M229,952.8828 L229,1007.8828 L465,1007.8828 L465,962.8828 L455,952.8828 L229,952.8828 " fill="#FEFFDD" style="stroke:#181818;stroke-width:0.5;"/><path d="M455,952.8828 L455,962.8828 L465,962.8828 L455,952.8828 " fill="#FEFFDD" style="stroke:#181818;stroke-width:0.5;"/><text fill="#000000" font-family="sans-serif" font-size="13" lengthAdjust="spacing" textLength="210.3804" x="235" y="969.9497">Configuration processing phase:</text><text fill="#000000" font-family="sans-serif" font-size="13" lengthAdjust="spacing" textLength="215.8076" x="235" y="985.0825">Prepares the request with proper</text><text fill="#000000" font-family="sans-serif" font-size="13" lengthAdjust="spacing" textLength="179.0674" x="235" y="1000.2153">settings and authentication</text><g><line style="stroke:#181818;stroke-width:1;" x1="352.4702" x2="394.4702" y1="1038.4805" y2="1038.4805"/><line style="stroke:#181818;stroke-width:1;" x1="394.4702" x2="394.4702" y1="1038.4805" y2="1051.4805"/><line style="stroke:#181818;stroke-width:1;" x1="353.4702" x2="394.4702" y1="1051.4805" y2="1051.4805"/><polygon fill="#181818" points="363.4702,1047.4805,353.4702,1051.4805,363.4702,1055.4805,359.4702,1051.4805" style="stroke:#181818;stroke-width:1;"/><text fill="#000000" font-family="sans-serif" font-size="13" lengthAdjust="spacing" textLength="141.4829" x="359.4702" y="1033.4146">renderConfiguration()</text></g><path d="M522.4829,1018.2813 L522.4829,1058.2813 L793.4829,1058.2813 L793.4829,1028.2813 L783.4829,1018.2813 L522.4829,1018.2813 " fill="#FEFFDD" style="stroke:#181818;stroke-width:0.5;"/><path d="M783.4829,1018.2813 L783.4829,1028.2813 L793.4829,1028.2813 L783.4829,1018.2813 " fill="#FEFFDD" style="stroke:#181818;stroke-width:0.5;"/><text fill="#000000" font-family="sans-serif" font-size="13" lengthAdjust="spacing" textLength="250.6626" x="528.4829" y="1035.3481">Processes template variables in config</text><text fill="#000000" font-family="sans-serif" font-size="13" lengthAdjust="spacing" textLength="193.0767" x="528.4829" y="1050.481">using Twig templating engine</text><g><line style="stroke:#181818;stroke-width:1;" x1="352.4702" x2="394.4702" y1="1088.7461" y2="1088.7461"/><line style="stroke:#181818;stroke-width:1;" x1="394.4702" x2="394.4702" y1="1088.7461" y2="1101.7461"/><line style="stroke:#181818;stroke-width:1;" x1="353.4702" x2="394.4702" y1="1101.7461" y2="1101.7461"/><polygon fill="#181818" points="363.4702,1097.7461,353.4702,1101.7461,363.4702,1105.7461,359.4702,1101.7461" style="stroke:#181818;stroke-width:1;"/><text fill="#000000" font-family="sans-serif" font-size="13" lengthAdjust="spacing" textLength="110.6904" x="359.4702" y="1083.6802">applyConfigDot()</text></g><path d="M491.6904,1068.5469 L491.6904,1108.5469 L729.6904,1108.5469 L729.6904,1078.5469 L719.6904,1068.5469 L491.6904,1068.5469 " fill="#FEFFDD" style="stroke:#181818;stroke-width:0.5;"/><path d="M719.6904,1068.5469 L719.6904,1078.5469 L729.6904,1078.5469 L719.6904,1068.5469 " fill="#FEFFDD" style="stroke:#181818;stroke-width:0.5;"/><text fill="#000000" font-family="sans-serif" font-size="13" lengthAdjust="spacing" textLength="217.1978" x="497.6904" y="1085.6138">Transforms dot notation in config</text><text fill="#000000" font-family="sans-serif" font-size="13" lengthAdjust="spacing" textLength="175.2524" x="497.6904" y="1100.7466">into nested array structure</text><g><line style="stroke:#181818;stroke-width:1;" x1="352.4702" x2="394.4702" y1="1154.1445" y2="1154.1445"/><line style="stroke:#181818;stroke-width:1;" x1="394.4702" x2="394.4702" y1="1154.1445" y2="1167.1445"/><line style="stroke:#181818;stroke-width:1;" x1="353.4702" x2="394.4702" y1="1167.1445" y2="1167.1445"/><polygon fill="#181818" points="363.4702,1163.1445,353.4702,1167.1445,363.4702,1171.1445,359.4702,1167.1445" style="stroke:#181818;stroke-width:1;"/><text fill="#000000" font-family="sans-serif" font-size="13" lengthAdjust="spacing" textLength="102.1592" x="359.4702" y="1149.0786">decideMethod()</text></g><path d="M483.1592,1118.8125 L483.1592,1188.8125 L771.1592,1188.8125 L771.1592,1128.8125 L761.1592,1118.8125 L483.1592,1118.8125 " fill="#FEFFDD" style="stroke:#181818;stroke-width:0.5;"/><path d="M761.1592,1118.8125 L761.1592,1128.8125 L771.1592,1128.8125 L761.1592,1118.8125 " fill="#FEFFDD" style="stroke:#181818;stroke-width:0.5;"/><text fill="#000000" font-family="sans-serif" font-size="13" lengthAdjust="spacing" textLength="267.9155" x="489.1592" y="1135.8794">Determines final HTTP method based on:</text><text fill="#000000" font-family="sans-serif" font-size="13" lengthAdjust="spacing" textLength="110.6587" x="489.1592" y="1151.0122">- Default method</text><text fill="#000000" font-family="sans-serif" font-size="13" lengthAdjust="spacing" textLength="162.0874" x="489.1592" y="1166.145">- Configuration overrides</text><text fill="#000000" font-family="sans-serif" font-size="13" lengthAdjust="spacing" textLength="174.002" x="489.1592" y="1181.2778">- Operation type (list/read)</text><path d="M302,1199.3438 L302,1254.3438 L1059,1254.3438 L1059,1209.3438 L1049,1199.3438 L302,1199.3438 " fill="#FEFFDD" style="stroke:#181818;stroke-width:0.5;"/><path d="M1049,1199.3438 L1049,1209.3438 L1059,1209.3438 L1049,1199.3438 " fill="#FEFFDD" style="stroke:#181818;stroke-width:0.5;"/><text fill="#000000" font-family="sans-serif" font-size="13" lengthAdjust="spacing" textLength="111.9346" x="580.9553" y="1216.4106">Execution phase:</text><text fill="#000000" font-family="sans-serif" font-size="13" lengthAdjust="spacing" textLength="190.8677" x="580.9553" y="1231.5435">Makes the actual API call and</text><text fill="#000000" font-family="sans-serif" font-size="13" lengthAdjust="spacing" textLength="140.0103" x="580.9553" y="1246.6763">handles the response</text><g><polygon fill="#181818" points="527.897,1276.875,537.897,1280.875,527.897,1284.875,531.897,1280.875" style="stroke:#181818;stroke-width:1;"/><line style="stroke:#181818;stroke-width:1;" x1="352.4702" x2="533.897" y1="1280.875" y2="1280.875"/><text fill="#000000" font-family="sans-serif" font-size="13" lengthAdjust="spacing" textLength="81.3579" x="405.5046" y="1275.8091">setLastCall()</text></g><g><polygon fill="#181818" points="868.1978,1306.0078,878.1978,1310.0078,868.1978,1314.0078,872.1978,1310.0078" style="stroke:#181818;stroke-width:1;"/><line style="stroke:#181818;stroke-width:1;" x1="352.4702" x2="874.1978" y1="1310.0078" y2="1310.0078"/><text fill="#000000" font-family="sans-serif" font-size="13" lengthAdjust="spacing" textLength="183.5552" x="524.5564" y="1304.9419">request(method, url, config)</text></g><path d="M813,1323.0078 L813,1408.0078 L956,1408.0078 L956,1333.0078 L946,1323.0078 L813,1323.0078 " fill="#FEFFDD" style="stroke:#181818;stroke-width:0.5;"/><path d="M946,1323.0078 L946,1333.0078 L956,1333.0078 L946,1323.0078 " fill="#FEFFDD" style="stroke:#181818;stroke-width:0.5;"/><text fill="#000000" font-family="sans-serif" font-size="13" lengthAdjust="spacing" textLength="103.1621" x="819" y="1340.0747">Guzzle handles:</text><text fill="#000000" font-family="sans-serif" font-size="13" lengthAdjust="spacing" textLength="106.52" x="819" y="1355.2075">- HTTP transport</text><text fill="#000000" font-family="sans-serif" font-size="13" lengthAdjust="spacing" textLength="60.3853" x="819" y="1370.3403">- SSL/TLS</text><text fill="#000000" font-family="sans-serif" font-size="13" lengthAdjust="spacing" textLength="122.8716" x="819" y="1385.4731">- Timeout handling</text><text fill="#000000" font-family="sans-serif" font-size="13" lengthAdjust="spacing" textLength="70.0781" x="819" y="1400.606">- Redirects</text><g><polygon fill="#181818" points="1002.8462,1430.8047,1012.8462,1434.8047,1002.8462,1438.8047,1006.8462,1434.8047" style="stroke:#181818;stroke-width:1;"/><line style="stroke:#181818;stroke-width:1;" x1="890.1978" x2="1008.8462" y1="1434.8047" y2="1434.8047"/><text fill="#000000" font-family="sans-serif" font-size="13" lengthAdjust="spacing" textLength="91.019" x="907.0125" y="1429.7388">HTTP Request</text></g><g><polygon fill="#181818" points="896.1978,1459.9375,886.1978,1463.9375,896.1978,1467.9375,892.1978,1463.9375" style="stroke:#181818;stroke-width:1;"/><line style="stroke:#181818;stroke-width:1;stroke-dasharray:2.0,2.0;" x1="890.1978" x2="1013.8462" y1="1463.9375" y2="1463.9375"/><text fill="#000000" font-family="sans-serif" font-size="13" lengthAdjust="spacing" textLength="100.6484" x="899.6978" y="1458.8716">HTTP Response</text></g><path d="M221,1476.9375 L221,1516.9375 L473,1516.9375 L473,1486.9375 L463,1476.9375 L221,1476.9375 " fill="#FEFFDD" style="stroke:#181818;stroke-width:0.5;"/><path d="M463,1476.9375 L463,1486.9375 L473,1486.9375 L463,1476.9375 " fill="#FEFFDD" style="stroke:#181818;stroke-width:0.5;"/><text fill="#000000" font-family="sans-serif" font-size="13" lengthAdjust="spacing" textLength="150.4395" x="227" y="1494.0044">Post-processing phase:</text><text fill="#000000" font-family="sans-serif" font-size="13" lengthAdjust="spacing" textLength="231.1753" x="227" y="1509.1372">Updates rate limits and logs results</text><g><line style="stroke:#181818;stroke-width:1;" x1="352.4702" x2="394.4702" y1="1562.5352" y2="1562.5352"/><line style="stroke:#181818;stroke-width:1;" x1="394.4702" x2="394.4702" y1="1562.5352" y2="1575.5352"/><line style="stroke:#181818;stroke-width:1;" x1="353.4702" x2="394.4702" y1="1575.5352" y2="1575.5352"/><polygon fill="#181818" points="363.4702,1571.5352,353.4702,1575.5352,363.4702,1579.5352,359.4702,1575.5352" style="stroke:#181818;stroke-width:1;"/><text fill="#000000" font-family="sans-serif" font-size="13" lengthAdjust="spacing" textLength="115.9209" x="359.4702" y="1557.4692">sourceRateLimit()</text></g><path d="M496.9209,1527.2031 L496.9209,1597.2031 L759.9209,1597.2031 L759.9209,1537.2031 L749.9209,1527.2031 L496.9209,1527.2031 " fill="#FEFFDD" style="stroke:#181818;stroke-width:0.5;"/><path d="M749.9209,1527.2031 L749.9209,1537.2031 L759.9209,1537.2031 L749.9209,1527.2031 " fill="#FEFFDD" style="stroke:#181818;stroke-width:0.5;"/><text fill="#000000" font-family="sans-serif" font-size="13" lengthAdjust="spacing" textLength="242.5186" x="502.9209" y="1544.27">Updates rate limit tracking based on:</text><text fill="#000000" font-family="sans-serif" font-size="13" lengthAdjust="spacing" textLength="128.5464" x="502.9209" y="1559.4028">- Response headers</text><text fill="#000000" font-family="sans-serif" font-size="13" lengthAdjust="spacing" textLength="119.8691" x="502.9209" y="1574.5356">- Configured limits</text><text fill="#000000" font-family="sans-serif" font-size="13" lengthAdjust="spacing" textLength="101.2642" x="502.9209" y="1589.6685">- Time windows</text><g><polygon fill="#181818" points="754.8755,1619.8672,764.8755,1623.8672,754.8755,1627.8672,758.8755,1623.8672" style="stroke:#181818;stroke-width:1;"/><line style="stroke:#181818;stroke-width:1;" x1="352.4702" x2="760.8755" y1="1623.8672" y2="1623.8672"/><text fill="#000000" font-family="sans-serif" font-size="13" lengthAdjust="spacing" textLength="99.4043" x="509.9707" y="1618.8013">update(source)</text></g><g><polygon fill="#181818" points="628.186,1682.2656,638.186,1686.2656,628.186,1690.2656,632.186,1686.2656" style="stroke:#181818;stroke-width:1;"/><line style="stroke:#181818;stroke-width:1;" x1="352.4702" x2="634.186" y1="1686.2656" y2="1686.2656"/><text fill="#000000" font-family="sans-serif" font-size="13" lengthAdjust="spacing" textLength="92.9932" x="449.8315" y="1681.1997">insert(callLog)</text></g><path d="M645,1636.8672 L645,1721.8672 L798,1721.8672 L798,1646.8672 L788,1636.8672 L645,1636.8672 " fill="#FEFFDD" style="stroke:#181818;stroke-width:0.5;"/><path d="M788,1636.8672 L788,1646.8672 L798,1646.8672 L788,1636.8672 " fill="#FEFFDD" style="stroke:#181818;stroke-width:0.5;"/><text fill="#000000" font-family="sans-serif" font-size="13" lengthAdjust="spacing" textLength="86.9883" x="651" y="1653.9341">Logs contain:</text><text fill="#000000" font-family="sans-serif" font-size="13" lengthAdjust="spacing" textLength="109.6558" x="651" y="1669.0669">- Request details</text><text fill="#000000" font-family="sans-serif" font-size="13" lengthAdjust="spacing" textLength="105.2568" x="651" y="1684.1997">- Response data</text><text fill="#000000" font-family="sans-serif" font-size="13" lengthAdjust="spacing" textLength="132.5327" x="651" y="1699.3325">- Timing information</text><text fill="#000000" font-family="sans-serif" font-size="13" lengthAdjust="spacing" textLength="84.8618" x="651" y="1714.4653">- Error states</text><g><polygon fill="#181818" points="86.1118,1744.6641,76.1118,1748.6641,86.1118,1752.6641,82.1118,1748.6641" style="stroke:#181818;stroke-width:1;"/><line style="stroke:#181818;stroke-width:1;stroke-dasharray:2.0,2.0;" x1="80.1118" x2="346.4702" y1="1748.6641" y2="1748.6641"/><text fill="#000000" font-family="sans-serif" font-size="13" lengthAdjust="spacing" textLength="90.1812" x="166.2004" y="1743.5981">return callLog</text></g><path d="M29,1761.6641 L29,1846.6641 L1059,1846.6641 L1059,1771.6641 L1049,1761.6641 L29,1761.6641 " fill="#FEFFDD" style="stroke:#181818;stroke-width:0.5;"/><path d="M1049,1761.6641 L1049,1771.6641 L1059,1771.6641 L1049,1761.6641 " fill="#FEFFDD" style="stroke:#181818;stroke-width:0.5;"/><text fill="#000000" font-family="sans-serif" font-size="13" lengthAdjust="spacing" textLength="240.9443" x="419.1833" y="1778.731">The entire process is designed to be:</text><text fill="#000000" font-family="sans-serif" font-size="13" lengthAdjust="spacing" textLength="104.9268" x="419.1833" y="1793.8638">1. Fault-tolerant</text><text fill="#000000" font-family="sans-serif" font-size="13" lengthAdjust="spacing" textLength="131.3584" x="419.1833" y="1808.9966">2. Self-documenting</text><text fill="#000000" font-family="sans-serif" font-size="13" lengthAdjust="spacing" textLength="123.957" x="419.1833" y="1824.1294">3. Rate-limit aware</text><text fill="#000000" font-family="sans-serif" font-size="13" lengthAdjust="spacing" textLength="95.6211" x="419.1833" y="1839.2622">4. Fully logged</text><text fill="#888888" font-family="sans-serif" font-size="10" lengthAdjust="spacing" textLength="81.4648" x="986.8462" y="14.2822">Open Connector</text><text fill="#888888" font-family="sans-serif" font-size="10" lengthAdjust="spacing" textLength="81.4648" x="493.4231" y="1902.9072">Open Connector</text><!--SRC=[fLR1RXit4BthAmQvr0Oi1qrxqg60Apkk0HaHBEK3wDtHYicAt99SAShNzmt9rUugyg6m3fP53ZapRzwyOT2XPfghkgOLkxqkc9RE5kmzVQxjORAnDh2RqPU63SsjCLm4woPRLkM5vKcZND25RfG9zE6kQMfTgA2j-K3A4twF3SHjzXeDvgln_igsBc-jVZsviDMpQXfswUpY-TBXWSNgpE2n_VcpvdcjsOHey3WV6ppyGEf6rNItV4e9B9yc4_zT6vYf7Nd-jsK37q1BLNnNwyfGWTlO3QmS-yOQtrdzpO3rpZbxeE1QdamC02QxPoVut0W6HEijKo4rsRIc4Fn8UmfOt2bj21xSaHgh4UJ6EYp2MINHnKCU5op5DICGFyElAVa8nemIA6HVlw5WL5WJSA4SBb8DnLN9M8otJE6gZ7vmik52RtGHtNJB56nq6MtXRslB6VspNY_p3xfwV5ZVqFBB2dyv5BVNqHBEDhgQqLrPQd49YDDIwo9Ro3RovIVm8_1C9e26fdy1d5dqTvNokJa5SfCTtkIBhYSAoUmLe0MW2MEdgsqWkqaGFncuXkEzgdMPl3PRvLdmcc-v-Ev9RoBcoPTKe74MPAgFfsYvXBKo9Qaz85ElQ2KfIEkv3_stT9tSrj_4HepBoNmbQI6hYiEJVqYhLuY-3fqrRZcP4pxf2EW-8mrQkN1Lf6QuZjjdgQ8hA7vWG1i4oGWs1DurmKlr6iTxy2aRbVpQLfNmGNlVie-v2UU49jb6jIWQk8kxuagNQ1SRWaErPk1zQ9sX79pWSGaBG4wrJI8nGcEH5pCOnlPcxq3XhlDxqA1B6qwN8aw3GzdiDRKVi9h2eY96lxfOMkHTIBVzxzJxDe_qUn5grde74WBj4_EMgHm-MXwsNEzacmT2v3FZH5RGi1vaWwgag_oGTRq7AYAVH_3Axa8sNzXp0CXlREwIFkGgkFvE_b4mb-_ZP1-Y5_m1-opl_7wBSHJezJZAFMz-kfMHaniGz3Gjd1tpvX-tT7yqQgSbWYEfyblhGmxp7VMQZ_IfIIFol7GGV4uwxMGq-11fbcK39a1QoftQIhKmD24Fo95UlE4hrqX4qC6StSWG9UfnZl74Sn8GkhqMgFVAQH4II9l96WR3DkQnFkYgiuoSCz21WOprlZ5HwsDoVM_3kTkrKyQZKtQUIYjz6r8QGu_G4qk6fIwad5D7yfY51OfmqM69oLDYVeh0dxkxbo679a5E6oqq6KwVLvIc96lI3BpdZMf1uhGPbyP8IxKTFANHXwTDNW_7XkcgrZvyT7ZtNFSn3aboandwy8EBTZnFdjNtp0jCfJPnESrt407xMtpL9-QavyAG4Czfm0ykY4FtrBBWrKBv88-YKoS_pcST2w-wsTYw-iA0nBEdpmC_YDBBg0iheHTn3LBSnheGbrQhnSVrOXN_N-iTYvx6CqaVf_J2fNOYKdqoZtC93lddTy9B2d4YY4nps7aZur3oCDBplbnQ7wQNsl5hWwaEJDr0OwJj8ETUG0OJtfBBKmuz1TFKEEdYEGj_TNOQ56SaxDAYz8Bs8nh2Bkju1oa4n9JsuC_ROWMbRQFJ_1IwbXmWNbL7b053BkhoAFw5W99VWrsSIS26Zy5JxF2hkX3ZOy58mtV3UKeFSLpw89YC8tz3SGSrFZtN-YTnwYjv4ujUEkuaKHvIw5QykW4S52MD3uoEpzBdqs1hT71ystoISL9lfgKjsfrS4WcAKI4LdQQ2gGFK6wj_udmhemDCgJ0uSlp_0G00]--></g></svg>