<svg xmlns="http://www.w3.org/2000/svg" xmlns:xlink="http://www.w3.org/1999/xlink" contentStyleType="text/css" data-diagram-type="SEQUENCE" height="1611px" preserveAspectRatio="none" style="width:947px;height:1611px;background:#FFFFFF;" version="1.1" viewBox="0 0 947 1611" width="947px" zoomAndPan="magnify"><title>Object Locking Sequence Diagram</title><defs/><g><text fill="#000000" font-family="sans-serif" font-size="14" font-weight="bold" lengthAdjust="spacing" textLength="270.416" x="334.75" y="27.9951">Object Locking Sequence Diagram</text><g><title>API</title><rect fill="#FFFFFF" height="388.5938" style="stroke:#181818;stroke-width:1;" width="10" x="187.3896" y="192.8594"/></g><g><title>API</title><rect fill="#FFFFFF" height="346.4609" style="stroke:#181818;stroke-width:1;" width="10" x="187.3896" y="747.1172"/></g><g><title>API</title><rect fill="#FFFFFF" height="346.4609" style="stroke:#181818;stroke-width:1;" width="10" x="187.3896" y="1165.8438"/></g><g><title>ObjectService</title><rect fill="#FFFFFF" height="330.3281" style="stroke:#181818;stroke-width:1;" width="10" x="442.252" y="221.9922"/></g><g><title>ObjectService</title><rect fill="#FFFFFF" height="288.1953" style="stroke:#181818;stroke-width:1;" width="10" x="442.252" y="776.25"/></g><g><title>ObjectService</title><rect fill="#FFFFFF" height="288.1953" style="stroke:#181818;stroke-width:1;" width="10" x="442.252" y="1194.9766"/></g><g><title>ObjectEntity</title><rect fill="#FFFFFF" height="155.5313" style="stroke:#181818;stroke-width:1;" width="10" x="671.2666" y="309.3906"/></g><g><title>ObjectEntity</title><rect fill="#FFFFFF" height="113.3984" style="stroke:#181818;stroke-width:1;" width="10" x="671.2666" y="863.6484"/></g><g><title>ObjectEntity</title><rect fill="#FFFFFF" height="113.3984" style="stroke:#181818;stroke-width:1;" width="10" x="671.2666" y="1282.375"/></g><g><title>Database</title><rect fill="#FFFFFF" height="29.1328" style="stroke:#181818;stroke-width:1;" width="10" x="894.5156" y="251.125"/></g><g><title>Database</title><rect fill="#FFFFFF" height="29.1328" style="stroke:#181818;stroke-width:1;" width="10" x="894.5156" y="494.0547"/></g><g><title>Database</title><rect fill="#FFFFFF" height="29.1328" style="stroke:#181818;stroke-width:1;" width="10" x="894.5156" y="805.3828"/></g><g><title>Database</title><rect fill="#FFFFFF" height="29.1328" style="stroke:#181818;stroke-width:1;" width="10" x="894.5156" y="1006.1797"/></g><g><title>Database</title><rect fill="#FFFFFF" height="29.1328" style="stroke:#181818;stroke-width:1;" width="10" x="894.5156" y="1224.1094"/></g><g><title>Database</title><rect fill="#FFFFFF" height="29.1328" style="stroke:#181818;stroke-width:1;" width="10" x="894.5156" y="1424.9063"/></g><g><title>User</title><rect fill="#FFFFFF" fill-opacity="0.00000" height="1411.7109" width="8" x="19.9551" y="118.5938"/><line style="stroke:#181818;stroke-width:0.5;stroke-dasharray:5.0,5.0;" x1="23" x2="23" y1="118.5938" y2="1530.3047"/></g><g><title>API</title><rect fill="#FFFFFF" fill-opacity="0.00000" height="1411.7109" width="8" x="188.3896" y="118.5938"/><line style="stroke:#181818;stroke-width:0.5;stroke-dasharray:5.0,5.0;" x1="192.3154" x2="192.3154" y1="118.5938" y2="1530.3047"/></g><g><title>ObjectService</title><rect fill="#FFFFFF" fill-opacity="0.00000" height="1411.7109" width="8" x="443.252" y="118.5938"/><line style="stroke:#181818;stroke-width:0.5;stroke-dasharray:5.0,5.0;" x1="446.5835" x2="446.5835" y1="118.5938" y2="1530.3047"/></g><g><title>ObjectEntity</title><rect fill="#FFFFFF" fill-opacity="0.00000" height="1411.7109" width="8" x="672.2666" y="118.5938"/><line style="stroke:#181818;stroke-width:0.5;stroke-dasharray:5.0,5.0;" x1="676.0327" x2="676.0327" y1="118.5938" y2="1530.3047"/></g><g><title>Database</title><rect fill="#FFFFFF" fill-opacity="0.00000" height="1411.7109" width="8" x="895.5156" y="118.5938"/><line style="stroke:#181818;stroke-width:0.5;stroke-dasharray:5.0,5.0;" x1="899.1152" x2="899.1152" y1="118.5938" y2="1530.3047"/></g><g><text fill="#000000" font-family="sans-serif" font-size="14" lengthAdjust="spacing" textLength="31.9102" x="5" y="115.292">User</text><ellipse cx="23.9551" cy="50.7969" fill="#E3E3E3" rx="8" ry="8" style="stroke:#181818;stroke-width:0.5;"/><path d="M23.9551,58.7969 L23.9551,85.7969 M10.9551,66.7969 L36.9551,66.7969 M23.9551,85.7969 L10.9551,100.7969 M23.9551,85.7969 L36.9551,100.7969 " fill="#FFFFFF" fill-opacity="0.00000" style="stroke:#181818;stroke-width:0.5;"/></g><g><text fill="#000000" font-family="sans-serif" font-size="14" lengthAdjust="spacing" textLength="31.9102" x="5" y="1542.2998">User</text><ellipse cx="23.9551" cy="1554.1016" fill="#E3E3E3" rx="8" ry="8" style="stroke:#181818;stroke-width:0.5;"/><path d="M23.9551,1562.1016 L23.9551,1589.1016 M10.9551,1570.1016 L36.9551,1570.1016 M23.9551,1589.1016 L10.9551,1604.1016 M23.9551,1589.1016 L36.9551,1604.1016 " fill="#FFFFFF" fill-opacity="0.00000" style="stroke:#181818;stroke-width:0.5;"/></g><g><rect fill="#E3E3E3" height="30.2969" rx="2.5" ry="2.5" style="stroke:#181818;stroke-width:0.5;" width="36.1484" x="174.3154" y="87.2969"/><text fill="#000000" font-family="sans-serif" font-size="14" lengthAdjust="spacing" textLength="22.1484" x="181.3154" y="107.292">API</text></g><g><rect fill="#E3E3E3" height="30.2969" rx="2.5" ry="2.5" style="stroke:#181818;stroke-width:0.5;" width="36.1484" x="174.3154" y="1529.3047"/><text fill="#000000" font-family="sans-serif" font-size="14" lengthAdjust="spacing" textLength="22.1484" x="181.3154" y="1549.2998">API</text></g><g><rect fill="#E3E3E3" height="30.2969" rx="2.5" ry="2.5" style="stroke:#181818;stroke-width:0.5;" width="111.3369" x="391.5835" y="87.2969"/><text fill="#000000" font-family="sans-serif" font-size="14" lengthAdjust="spacing" textLength="97.3369" x="398.5835" y="107.292">ObjectService</text></g><g><rect fill="#E3E3E3" height="30.2969" rx="2.5" ry="2.5" style="stroke:#181818;stroke-width:0.5;" width="111.3369" x="391.5835" y="1529.3047"/><text fill="#000000" font-family="sans-serif" font-size="14" lengthAdjust="spacing" textLength="97.3369" x="398.5835" y="1549.2998">ObjectService</text></g><g><rect fill="#E3E3E3" height="30.2969" rx="2.5" ry="2.5" style="stroke:#181818;stroke-width:0.5;" width="100.4678" x="626.0327" y="87.2969"/><text fill="#000000" font-family="sans-serif" font-size="14" lengthAdjust="spacing" textLength="86.4678" x="633.0327" y="107.292">ObjectEntity</text></g><g><rect fill="#E3E3E3" height="30.2969" rx="2.5" ry="2.5" style="stroke:#181818;stroke-width:0.5;" width="100.4678" x="626.0327" y="1529.3047"/><text fill="#000000" font-family="sans-serif" font-size="14" lengthAdjust="spacing" textLength="86.4678" x="633.0327" y="1549.2998">ObjectEntity</text></g><g><text fill="#000000" font-family="sans-serif" font-size="14" lengthAdjust="spacing" textLength="66.8008" x="863.1152" y="115.292">Database</text><path d="M881.5156,66.2969 C881.5156,56.2969 899.5156,56.2969 899.5156,56.2969 C899.5156,56.2969 917.5156,56.2969 917.5156,66.2969 L917.5156,92.2969 C917.5156,102.2969 899.5156,102.2969 899.5156,102.2969 C899.5156,102.2969 881.5156,102.2969 881.5156,92.2969 L881.5156,66.2969 " fill="#E3E3E3" style="stroke:#181818;stroke-width:1.5;"/><path d="M881.5156,66.2969 C881.5156,76.2969 899.5156,76.2969 899.5156,76.2969 C899.5156,76.2969 917.5156,76.2969 917.5156,66.2969 " fill="#FFFFFF" fill-opacity="0.00000" style="stroke:#181818;stroke-width:1.5;"/></g><g><text fill="#000000" font-family="sans-serif" font-size="14" lengthAdjust="spacing" textLength="66.8008" x="863.1152" y="1542.2998">Database</text><path d="M881.5156,1555.6016 C881.5156,1545.6016 899.5156,1545.6016 899.5156,1545.6016 C899.5156,1545.6016 917.5156,1545.6016 917.5156,1555.6016 L917.5156,1581.6016 C917.5156,1591.6016 899.5156,1591.6016 899.5156,1591.6016 C899.5156,1591.6016 881.5156,1591.6016 881.5156,1581.6016 L881.5156,1555.6016 " fill="#E3E3E3" style="stroke:#181818;stroke-width:1.5;"/><path d="M881.5156,1555.6016 C881.5156,1565.6016 899.5156,1565.6016 899.5156,1565.6016 C899.5156,1565.6016 917.5156,1565.6016 917.5156,1555.6016 " fill="#FFFFFF" fill-opacity="0.00000" style="stroke:#181818;stroke-width:1.5;"/></g><g><title>API</title><rect fill="#FFFFFF" height="388.5938" style="stroke:#181818;stroke-width:1;" width="10" x="187.3896" y="192.8594"/></g><g><title>API</title><rect fill="#FFFFFF" height="346.4609" style="stroke:#181818;stroke-width:1;" width="10" x="187.3896" y="747.1172"/></g><g><title>API</title><rect fill="#FFFFFF" height="346.4609" style="stroke:#181818;stroke-width:1;" width="10" x="187.3896" y="1165.8438"/></g><g><title>ObjectService</title><rect fill="#FFFFFF" height="330.3281" style="stroke:#181818;stroke-width:1;" width="10" x="442.252" y="221.9922"/></g><g><title>ObjectService</title><rect fill="#FFFFFF" height="288.1953" style="stroke:#181818;stroke-width:1;" width="10" x="442.252" y="776.25"/></g><g><title>ObjectService</title><rect fill="#FFFFFF" height="288.1953" style="stroke:#181818;stroke-width:1;" width="10" x="442.252" y="1194.9766"/></g><g><title>ObjectEntity</title><rect fill="#FFFFFF" height="155.5313" style="stroke:#181818;stroke-width:1;" width="10" x="671.2666" y="309.3906"/></g><g><title>ObjectEntity</title><rect fill="#FFFFFF" height="113.3984" style="stroke:#181818;stroke-width:1;" width="10" x="671.2666" y="863.6484"/></g><g><title>ObjectEntity</title><rect fill="#FFFFFF" height="113.3984" style="stroke:#181818;stroke-width:1;" width="10" x="671.2666" y="1282.375"/></g><g><title>Database</title><rect fill="#FFFFFF" height="29.1328" style="stroke:#181818;stroke-width:1;" width="10" x="894.5156" y="251.125"/></g><g><title>Database</title><rect fill="#FFFFFF" height="29.1328" style="stroke:#181818;stroke-width:1;" width="10" x="894.5156" y="494.0547"/></g><g><title>Database</title><rect fill="#FFFFFF" height="29.1328" style="stroke:#181818;stroke-width:1;" width="10" x="894.5156" y="805.3828"/></g><g><title>Database</title><rect fill="#FFFFFF" height="29.1328" style="stroke:#181818;stroke-width:1;" width="10" x="894.5156" y="1006.1797"/></g><g><title>Database</title><rect fill="#FFFFFF" height="29.1328" style="stroke:#181818;stroke-width:1;" width="10" x="894.5156" y="1224.1094"/></g><g><title>Database</title><rect fill="#FFFFFF" height="29.1328" style="stroke:#181818;stroke-width:1;" width="10" x="894.5156" y="1424.9063"/></g><rect fill="#EEEEEE" height="3" style="stroke:#EEEEEE;stroke-width:1;" width="940.916" x="0" y="149.1602"/><line style="stroke:#000000;stroke-width:1;" x1="0" x2="940.916" y1="149.1602" y2="149.1602"/><line style="stroke:#000000;stroke-width:1;" x1="0" x2="940.916" y1="152.1602" y2="152.1602"/><rect fill="#EEEEEE" height="23.1328" style="stroke:#000000;stroke-width:2;" width="104.1685" x="418.3738" y="138.5938"/><text fill="#000000" font-family="sans-serif" font-size="13" font-weight="bold" lengthAdjust="spacing" textLength="85.6426" x="424.3738" y="154.6606">Lock Object</text><g><polygon fill="#181818" points="175.3896,188.8594,185.3896,192.8594,175.3896,196.8594,179.3896,192.8594" style="stroke:#181818;stroke-width:1;"/><line style="stroke:#181818;stroke-width:1;" x1="23.9551" x2="181.3896" y1="192.8594" y2="192.8594"/><text fill="#000000" font-family="sans-serif" font-size="13" lengthAdjust="spacing" textLength="127.9561" x="30.9551" y="187.7935">Request lock object</text></g><g><polygon fill="#181818" points="430.252,217.9922,440.252,221.9922,430.252,225.9922,434.252,221.9922" style="stroke:#181818;stroke-width:1;"/><line style="stroke:#181818;stroke-width:1;" x1="197.3896" x2="436.252" y1="221.9922" y2="221.9922"/><text fill="#000000" font-family="sans-serif" font-size="13" lengthAdjust="spacing" textLength="225.8623" x="204.3896" y="216.9263">lockObject(id, process?, duration?)</text></g><g><polygon fill="#181818" points="882.5156,247.125,892.5156,251.125,882.5156,255.125,886.5156,251.125" style="stroke:#181818;stroke-width:1;"/><line style="stroke:#181818;stroke-width:1;" x1="452.252" x2="888.5156" y1="251.125" y2="251.125"/><text fill="#000000" font-family="sans-serif" font-size="13" lengthAdjust="spacing" textLength="68.8721" x="459.252" y="246.0591">find object</text></g><g><polygon fill="#181818" points="463.252,276.2578,453.252,280.2578,463.252,284.2578,459.252,280.2578" style="stroke:#181818;stroke-width:1;"/><line style="stroke:#181818;stroke-width:1;stroke-dasharray:2.0,2.0;" x1="457.252" x2="898.5156" y1="280.2578" y2="280.2578"/><text fill="#000000" font-family="sans-serif" font-size="13" lengthAdjust="spacing" textLength="84.4556" x="469.252" y="275.1919">return object</text></g><g><polygon fill="#181818" points="659.2666,305.3906,669.2666,309.3906,659.2666,313.3906,663.2666,309.3906" style="stroke:#181818;stroke-width:1;"/><line style="stroke:#181818;stroke-width:1;" x1="452.252" x2="665.2666" y1="309.3906" y2="309.3906"/><text fill="#000000" font-family="sans-serif" font-size="13" lengthAdjust="spacing" textLength="200.0146" x="459.252" y="304.3247">lock(user, process?, duration?)</text></g><g><line style="stroke:#181818;stroke-width:1;" x1="681.2666" x2="723.2666" y1="338.5234" y2="338.5234"/><line style="stroke:#181818;stroke-width:1;" x1="723.2666" x2="723.2666" y1="338.5234" y2="351.5234"/><line style="stroke:#181818;stroke-width:1;" x1="682.2666" x2="723.2666" y1="351.5234" y2="351.5234"/><polygon fill="#181818" points="692.2666,347.5234,682.2666,351.5234,692.2666,355.5234,688.2666,351.5234" style="stroke:#181818;stroke-width:1;"/><text fill="#000000" font-family="sans-serif" font-size="13" lengthAdjust="spacing" textLength="149.9697" x="688.2666" y="333.4575">check if already locked</text></g><g><line style="stroke:#181818;stroke-width:1;" x1="681.2666" x2="723.2666" y1="380.6563" y2="380.6563"/><line style="stroke:#181818;stroke-width:1;" x1="723.2666" x2="723.2666" y1="380.6563" y2="393.6563"/><line style="stroke:#181818;stroke-width:1;" x1="682.2666" x2="723.2666" y1="393.6563" y2="393.6563"/><polygon fill="#181818" points="692.2666,389.6563,682.2666,393.6563,692.2666,397.6563,688.2666,393.6563" style="stroke:#181818;stroke-width:1;"/><text fill="#000000" font-family="sans-serif" font-size="13" lengthAdjust="spacing" textLength="166.8101" x="688.2666" y="375.5903">validate user permissions</text></g><g><line style="stroke:#181818;stroke-width:1;" x1="681.2666" x2="723.2666" y1="422.7891" y2="422.7891"/><line style="stroke:#181818;stroke-width:1;" x1="723.2666" x2="723.2666" y1="422.7891" y2="435.7891"/><line style="stroke:#181818;stroke-width:1;" x1="682.2666" x2="723.2666" y1="435.7891" y2="435.7891"/><polygon fill="#181818" points="692.2666,431.7891,682.2666,435.7891,692.2666,439.7891,688.2666,435.7891" style="stroke:#181818;stroke-width:1;"/><text fill="#000000" font-family="sans-serif" font-size="13" lengthAdjust="spacing" textLength="189.249" x="688.2666" y="417.7231">create/update lock metadata</text></g><g><polygon fill="#181818" points="463.252,460.9219,453.252,464.9219,463.252,468.9219,459.252,464.9219" style="stroke:#181818;stroke-width:1;"/><line style="stroke:#181818;stroke-width:1;stroke-dasharray:2.0,2.0;" x1="457.252" x2="675.2666" y1="464.9219" y2="464.9219"/><text fill="#000000" font-family="sans-serif" font-size="13" lengthAdjust="spacing" textLength="95.2466" x="469.252" y="459.856">return success</text></g><g><polygon fill="#181818" points="882.5156,490.0547,892.5156,494.0547,882.5156,498.0547,886.5156,494.0547" style="stroke:#181818;stroke-width:1;"/><line style="stroke:#181818;stroke-width:1;" x1="452.252" x2="888.5156" y1="494.0547" y2="494.0547"/><text fill="#000000" font-family="sans-serif" font-size="13" lengthAdjust="spacing" textLength="89.9971" x="459.252" y="488.9888">update object</text></g><g><polygon fill="#181818" points="463.252,519.1875,453.252,523.1875,463.252,527.1875,459.252,523.1875" style="stroke:#181818;stroke-width:1;"/><line style="stroke:#181818;stroke-width:1;stroke-dasharray:2.0,2.0;" x1="457.252" x2="898.5156" y1="523.1875" y2="523.1875"/><text fill="#000000" font-family="sans-serif" font-size="13" lengthAdjust="spacing" textLength="99.4741" x="469.252" y="518.1216">confirm update</text></g><g><polygon fill="#181818" points="208.3896,548.3203,198.3896,552.3203,208.3896,556.3203,204.3896,552.3203" style="stroke:#181818;stroke-width:1;"/><line style="stroke:#181818;stroke-width:1;stroke-dasharray:2.0,2.0;" x1="202.3896" x2="446.252" y1="552.3203" y2="552.3203"/><text fill="#000000" font-family="sans-serif" font-size="13" lengthAdjust="spacing" textLength="131.0791" x="214.3896" y="547.2544">return locked object</text></g><g><polygon fill="#181818" points="34.9551,577.4531,24.9551,581.4531,34.9551,585.4531,30.9551,581.4531" style="stroke:#181818;stroke-width:1;"/><line style="stroke:#181818;stroke-width:1;stroke-dasharray:2.0,2.0;" x1="28.9551" x2="191.3896" y1="581.4531" y2="581.4531"/><text fill="#000000" font-family="sans-serif" font-size="13" lengthAdjust="spacing" textLength="95.2466" x="40.9551" y="576.3872">return success</text></g><rect fill="#EEEEEE" height="3" style="stroke:#EEEEEE;stroke-width:1;" width="940.916" x="0" y="610.0195"/><line style="stroke:#000000;stroke-width:1;" x1="0" x2="940.916" y1="610.0195" y2="610.0195"/><line style="stroke:#000000;stroke-width:1;" x1="0" x2="940.916" y1="613.0195" y2="613.0195"/><rect fill="#EEEEEE" height="23.1328" style="stroke:#000000;stroke-width:2;" width="132.5806" x="404.1677" y="599.4531"/><text fill="#000000" font-family="sans-serif" font-size="13" font-weight="bold" lengthAdjust="spacing" textLength="114.0547" x="410.1677" y="615.52">Auto Expiration</text><path d="M578,637.5859 L578,677.5859 L773,677.5859 L773,647.5859 L763,637.5859 L578,637.5859 " fill="#FAFAFA" style="stroke:#181818;stroke-width:0.5;"/><path d="M763,637.5859 L763,647.5859 L773,647.5859 L763,637.5859 " fill="#FAFAFA" style="stroke:#181818;stroke-width:0.5;"/><text fill="#000000" font-family="sans-serif" font-size="13" lengthAdjust="spacing" textLength="174.4336" x="584" y="654.6528">Lock automatically expires</text><text fill="#000000" font-family="sans-serif" font-size="13" lengthAdjust="spacing" textLength="138.4868" x="584" y="669.7856">after duration passes</text><rect fill="#EEEEEE" height="3" style="stroke:#EEEEEE;stroke-width:1;" width="940.916" x="0" y="703.418"/><line style="stroke:#000000;stroke-width:1;" x1="0" x2="940.916" y1="703.418" y2="703.418"/><line style="stroke:#000000;stroke-width:1;" x1="0" x2="940.916" y1="706.418" y2="706.418"/><rect fill="#EEEEEE" height="23.1328" style="stroke:#000000;stroke-width:2;" width="179.7881" x="380.564" y="692.8516"/><text fill="#000000" font-family="sans-serif" font-size="13" font-weight="bold" lengthAdjust="spacing" textLength="161.2622" x="386.564" y="708.9185">Update Locked Object</text><g><polygon fill="#181818" points="175.3896,743.1172,185.3896,747.1172,175.3896,751.1172,179.3896,747.1172" style="stroke:#181818;stroke-width:1;"/><line style="stroke:#181818;stroke-width:1;" x1="23.9551" x2="181.3896" y1="747.1172" y2="747.1172"/><text fill="#000000" font-family="sans-serif" font-size="13" lengthAdjust="spacing" textLength="91.2729" x="30.9551" y="742.0513">Update object</text></g><g><polygon fill="#181818" points="430.252,772.25,440.252,776.25,430.252,780.25,434.252,776.25" style="stroke:#181818;stroke-width:1;"/><line style="stroke:#181818;stroke-width:1;" x1="197.3896" x2="436.252" y1="776.25" y2="776.25"/><text fill="#000000" font-family="sans-serif" font-size="13" lengthAdjust="spacing" textLength="147.6973" x="204.3896" y="771.1841">updateObject(id, data)</text></g><g><polygon fill="#181818" points="882.5156,801.3828,892.5156,805.3828,882.5156,809.3828,886.5156,805.3828" style="stroke:#181818;stroke-width:1;"/><line style="stroke:#181818;stroke-width:1;" x1="452.252" x2="888.5156" y1="805.3828" y2="805.3828"/><text fill="#000000" font-family="sans-serif" font-size="13" lengthAdjust="spacing" textLength="68.8721" x="459.252" y="800.3169">find object</text></g><g><polygon fill="#181818" points="463.252,830.5156,453.252,834.5156,463.252,838.5156,459.252,834.5156" style="stroke:#181818;stroke-width:1;"/><line style="stroke:#181818;stroke-width:1;stroke-dasharray:2.0,2.0;" x1="457.252" x2="898.5156" y1="834.5156" y2="834.5156"/><text fill="#000000" font-family="sans-serif" font-size="13" lengthAdjust="spacing" textLength="84.4556" x="469.252" y="829.4497">return object</text></g><g><polygon fill="#181818" points="659.2666,859.6484,669.2666,863.6484,659.2666,867.6484,663.2666,863.6484" style="stroke:#181818;stroke-width:1;"/><line style="stroke:#181818;stroke-width:1;" x1="452.252" x2="665.2666" y1="863.6484" y2="863.6484"/><text fill="#000000" font-family="sans-serif" font-size="13" lengthAdjust="spacing" textLength="82.5703" x="459.252" y="858.5825">validate lock</text></g><g><line style="stroke:#181818;stroke-width:1;" x1="681.2666" x2="723.2666" y1="892.7813" y2="892.7813"/><line style="stroke:#181818;stroke-width:1;" x1="723.2666" x2="723.2666" y1="892.7813" y2="905.7813"/><line style="stroke:#181818;stroke-width:1;" x1="682.2666" x2="723.2666" y1="905.7813" y2="905.7813"/><polygon fill="#181818" points="692.2666,901.7813,682.2666,905.7813,692.2666,909.7813,688.2666,905.7813" style="stroke:#181818;stroke-width:1;"/><text fill="#000000" font-family="sans-serif" font-size="13" lengthAdjust="spacing" textLength="139.6104" x="688.2666" y="887.7153">check lock ownership</text></g><g><line style="stroke:#181818;stroke-width:1;" x1="681.2666" x2="723.2666" y1="934.9141" y2="934.9141"/><line style="stroke:#181818;stroke-width:1;" x1="723.2666" x2="723.2666" y1="934.9141" y2="947.9141"/><line style="stroke:#181818;stroke-width:1;" x1="682.2666" x2="723.2666" y1="947.9141" y2="947.9141"/><polygon fill="#181818" points="692.2666,943.9141,682.2666,947.9141,692.2666,951.9141,688.2666,947.9141" style="stroke:#181818;stroke-width:1;"/><text fill="#000000" font-family="sans-serif" font-size="13" lengthAdjust="spacing" textLength="134.4878" x="688.2666" y="929.8481">extend lock duration</text></g><g><polygon fill="#181818" points="463.252,973.0469,453.252,977.0469,463.252,981.0469,459.252,977.0469" style="stroke:#181818;stroke-width:1;"/><line style="stroke:#181818;stroke-width:1;stroke-dasharray:2.0,2.0;" x1="457.252" x2="675.2666" y1="977.0469" y2="977.0469"/><text fill="#000000" font-family="sans-serif" font-size="13" lengthAdjust="spacing" textLength="83.6177" x="469.252" y="971.981">validation ok</text></g><g><polygon fill="#181818" points="882.5156,1002.1797,892.5156,1006.1797,882.5156,1010.1797,886.5156,1006.1797" style="stroke:#181818;stroke-width:1;"/><line style="stroke:#181818;stroke-width:1;" x1="452.252" x2="888.5156" y1="1006.1797" y2="1006.1797"/><text fill="#000000" font-family="sans-serif" font-size="13" lengthAdjust="spacing" textLength="89.9971" x="459.252" y="1001.1138">update object</text></g><g><polygon fill="#181818" points="463.252,1031.3125,453.252,1035.3125,463.252,1039.3125,459.252,1035.3125" style="stroke:#181818;stroke-width:1;"/><line style="stroke:#181818;stroke-width:1;stroke-dasharray:2.0,2.0;" x1="457.252" x2="898.5156" y1="1035.3125" y2="1035.3125"/><text fill="#000000" font-family="sans-serif" font-size="13" lengthAdjust="spacing" textLength="99.4741" x="469.252" y="1030.2466">confirm update</text></g><g><polygon fill="#181818" points="208.3896,1060.4453,198.3896,1064.4453,208.3896,1068.4453,204.3896,1064.4453" style="stroke:#181818;stroke-width:1;"/><line style="stroke:#181818;stroke-width:1;stroke-dasharray:2.0,2.0;" x1="202.3896" x2="446.252" y1="1064.4453" y2="1064.4453"/><text fill="#000000" font-family="sans-serif" font-size="13" lengthAdjust="spacing" textLength="142.6445" x="214.3896" y="1059.3794">return updated object</text></g><g><polygon fill="#181818" points="34.9551,1089.5781,24.9551,1093.5781,34.9551,1097.5781,30.9551,1093.5781" style="stroke:#181818;stroke-width:1;"/><line style="stroke:#181818;stroke-width:1;stroke-dasharray:2.0,2.0;" x1="28.9551" x2="191.3896" y1="1093.5781" y2="1093.5781"/><text fill="#000000" font-family="sans-serif" font-size="13" lengthAdjust="spacing" textLength="95.2466" x="40.9551" y="1088.5122">return success</text></g><rect fill="#EEEEEE" height="3" style="stroke:#EEEEEE;stroke-width:1;" width="940.916" x="0" y="1122.1445"/><line style="stroke:#000000;stroke-width:1;" x1="0" x2="940.916" y1="1122.1445" y2="1122.1445"/><line style="stroke:#000000;stroke-width:1;" x1="0" x2="940.916" y1="1125.1445" y2="1125.1445"/><rect fill="#EEEEEE" height="23.1328" style="stroke:#000000;stroke-width:2;" width="120.1519" x="410.3821" y="1111.5781"/><text fill="#000000" font-family="sans-serif" font-size="13" font-weight="bold" lengthAdjust="spacing" textLength="101.626" x="416.3821" y="1127.645">Unlock Object</text><g><polygon fill="#181818" points="175.3896,1161.8438,185.3896,1165.8438,175.3896,1169.8438,179.3896,1165.8438" style="stroke:#181818;stroke-width:1;"/><line style="stroke:#181818;stroke-width:1;" x1="23.9551" x2="181.3896" y1="1165.8438" y2="1165.8438"/><text fill="#000000" font-family="sans-serif" font-size="13" lengthAdjust="spacing" textLength="144.4346" x="30.9551" y="1160.7778">Request unlock object</text></g><g><polygon fill="#181818" points="430.252,1190.9766,440.252,1194.9766,430.252,1198.9766,434.252,1194.9766" style="stroke:#181818;stroke-width:1;"/><line style="stroke:#181818;stroke-width:1;" x1="197.3896" x2="436.252" y1="1194.9766" y2="1194.9766"/><text fill="#000000" font-family="sans-serif" font-size="13" lengthAdjust="spacing" textLength="107.0659" x="204.3896" y="1189.9106">unlockObject(id)</text></g><g><polygon fill="#181818" points="882.5156,1220.1094,892.5156,1224.1094,882.5156,1228.1094,886.5156,1224.1094" style="stroke:#181818;stroke-width:1;"/><line style="stroke:#181818;stroke-width:1;" x1="452.252" x2="888.5156" y1="1224.1094" y2="1224.1094"/><text fill="#000000" font-family="sans-serif" font-size="13" lengthAdjust="spacing" textLength="68.8721" x="459.252" y="1219.0435">find object</text></g><g><polygon fill="#181818" points="463.252,1249.2422,453.252,1253.2422,463.252,1257.2422,459.252,1253.2422" style="stroke:#181818;stroke-width:1;"/><line style="stroke:#181818;stroke-width:1;stroke-dasharray:2.0,2.0;" x1="457.252" x2="898.5156" y1="1253.2422" y2="1253.2422"/><text fill="#000000" font-family="sans-serif" font-size="13" lengthAdjust="spacing" textLength="84.4556" x="469.252" y="1248.1763">return object</text></g><g><polygon fill="#181818" points="659.2666,1278.375,669.2666,1282.375,659.2666,1286.375,663.2666,1282.375" style="stroke:#181818;stroke-width:1;"/><line style="stroke:#181818;stroke-width:1;" x1="452.252" x2="665.2666" y1="1282.375" y2="1282.375"/><text fill="#000000" font-family="sans-serif" font-size="13" lengthAdjust="spacing" textLength="81.2183" x="459.252" y="1277.3091">unlock(user)</text></g><g><line style="stroke:#181818;stroke-width:1;" x1="681.2666" x2="723.2666" y1="1311.5078" y2="1311.5078"/><line style="stroke:#181818;stroke-width:1;" x1="723.2666" x2="723.2666" y1="1311.5078" y2="1324.5078"/><line style="stroke:#181818;stroke-width:1;" x1="682.2666" x2="723.2666" y1="1324.5078" y2="1324.5078"/><polygon fill="#181818" points="692.2666,1320.5078,682.2666,1324.5078,692.2666,1328.5078,688.2666,1324.5078" style="stroke:#181818;stroke-width:1;"/><text fill="#000000" font-family="sans-serif" font-size="13" lengthAdjust="spacing" textLength="153.7466" x="688.2666" y="1306.4419">validate lock ownership</text></g><g><line style="stroke:#181818;stroke-width:1;" x1="681.2666" x2="723.2666" y1="1353.6406" y2="1353.6406"/><line style="stroke:#181818;stroke-width:1;" x1="723.2666" x2="723.2666" y1="1353.6406" y2="1366.6406"/><line style="stroke:#181818;stroke-width:1;" x1="682.2666" x2="723.2666" y1="1366.6406" y2="1366.6406"/><polygon fill="#181818" points="692.2666,1362.6406,682.2666,1366.6406,692.2666,1370.6406,688.2666,1366.6406" style="stroke:#181818;stroke-width:1;"/><text fill="#000000" font-family="sans-serif" font-size="13" lengthAdjust="spacing" textLength="147.1641" x="688.2666" y="1348.5747">remove lock metadata</text></g><g><polygon fill="#181818" points="463.252,1391.7734,453.252,1395.7734,463.252,1399.7734,459.252,1395.7734" style="stroke:#181818;stroke-width:1;"/><line style="stroke:#181818;stroke-width:1;stroke-dasharray:2.0,2.0;" x1="457.252" x2="675.2666" y1="1395.7734" y2="1395.7734"/><text fill="#000000" font-family="sans-serif" font-size="13" lengthAdjust="spacing" textLength="95.2466" x="469.252" y="1390.7075">return success</text></g><g><polygon fill="#181818" points="882.5156,1420.9063,892.5156,1424.9063,882.5156,1428.9063,886.5156,1424.9063" style="stroke:#181818;stroke-width:1;"/><line style="stroke:#181818;stroke-width:1;" x1="452.252" x2="888.5156" y1="1424.9063" y2="1424.9063"/><text fill="#000000" font-family="sans-serif" font-size="13" lengthAdjust="spacing" textLength="89.9971" x="459.252" y="1419.8403">update object</text></g><g><polygon fill="#181818" points="463.252,1450.0391,453.252,1454.0391,463.252,1458.0391,459.252,1454.0391" style="stroke:#181818;stroke-width:1;"/><line style="stroke:#181818;stroke-width:1;stroke-dasharray:2.0,2.0;" x1="457.252" x2="898.5156" y1="1454.0391" y2="1454.0391"/><text fill="#000000" font-family="sans-serif" font-size="13" lengthAdjust="spacing" textLength="99.4741" x="469.252" y="1448.9731">confirm update</text></g><g><polygon fill="#181818" points="208.3896,1479.1719,198.3896,1483.1719,208.3896,1487.1719,204.3896,1483.1719" style="stroke:#181818;stroke-width:1;"/><line style="stroke:#181818;stroke-width:1;stroke-dasharray:2.0,2.0;" x1="202.3896" x2="446.252" y1="1483.1719" y2="1483.1719"/><text fill="#000000" font-family="sans-serif" font-size="13" lengthAdjust="spacing" textLength="147.5576" x="214.3896" y="1478.106">return unlocked object</text></g><g><polygon fill="#181818" points="34.9551,1508.3047,24.9551,1512.3047,34.9551,1516.3047,30.9551,1512.3047" style="stroke:#181818;stroke-width:1;"/><line style="stroke:#181818;stroke-width:1;stroke-dasharray:2.0,2.0;" x1="28.9551" x2="191.3896" y1="1512.3047" y2="1512.3047"/><text fill="#000000" font-family="sans-serif" font-size="13" lengthAdjust="spacing" textLength="95.2466" x="40.9551" y="1507.2388">return success</text></g><!--SRC=[rLJ1JkCm4BtxAqOzWGJQUwKkeWg7bP1s1Ue766TA3OcTjIU5_ltEs4utB2dqW0HxIQpa-SsRDyycImt2pxi7D0JNtZnQTm-t-Bj7Pn0gg- -3RbNapvtc5RJUURC9laMWqADIsf0Fi8eO52F86jjfHp2x_FLZ1Ze2lr_-oBLkCMojmGGfwodObIDBkuJAIrLhqdSw8iogiaf_gwLIYqNgOEXciL0Y2yw_YuWvt4XNaQ0HZ4yOKM-tcZ39LFmGTD4pJyXCTcBhC-Y2DnZZnHdKVT1alRiu_SimTA7AGfYgvHpMrjMloh7SQWddus81gGzkGDOuneuvimzPt4dF3Rudh1YdydjCOJR8LjWrw2QWhdU94-i9v5OtjXOoAGWTXjR6o7NY52jp4NxhkxGXkTqYQHdS7ZtHUEoDD37kV53-ZwE5-GXFZNTh6zgouw2fGqAAakp2n2Js8qv1uLsIhxSQIAdYM5xsvE7gkRDvEX9DvwM5BRjPkeGSNitGbb56DyqEKFPWv9zwJOmTvWkTZf6_8sTBc5ALLVRbEii_S0fMq-PDvZ_RDZe1CiDFZFm-XJAXLm4_bEzytfySXhYntGGCdqbyJBZ1uCcablhYlt_y0a7Dw0zDwierHroXlJl-4itOVOW-CJvPIRepJuz8pukqlHcWW2sVvF_ngikMV5Y4_W00]--></g></svg>