<svg xmlns="http://www.w3.org/2000/svg" xmlns:xlink="http://www.w3.org/1999/xlink" contentStyleType="text/css" data-diagram-type="SEQUENCE" height="1446px" preserveAspectRatio="none" style="width:1126px;height:1446px;background:#FFFFFF;" version="1.1" viewBox="0 0 1126 1446" width="1126px" zoomAndPan="magnify"><title>Pagination Detection and Handling</title><defs/><g><text fill="#000000" font-family="sans-serif" font-size="14" font-weight="bold" lengthAdjust="spacing" textLength="276.4932" x="420.8257" y="40.6357">Pagination Detection and Handling</text><g><title>CallService</title><rect fill="#FFFFFF" height="1008.4531" style="stroke:#181818;stroke-width:1;" width="10" x="318.4702" y="197.8984"/></g><g><title>PaginationHandler</title><rect fill="#FFFFFF" height="487.6641" style="stroke:#181818;stroke-width:1;" width="10" x="527.312" y="394.9609"/></g><rect fill="#FFFFFF" fill-opacity="0.00000" height="303.4688" style="stroke:#000000;stroke-width:1.5;" width="559.2217" x="450.7158" y="551.0234"/><rect fill="#FFFFFF" fill-opacity="0.00000" height="200.0625" style="stroke:#000000;stroke-width:1.5;" width="851.6118" x="257.5327" y="897.625"/><rect fill="#FFFFFF" fill-opacity="0.00000" height="168.9297" style="stroke:#000000;stroke-width:1.5;" width="831.6118" x="267.5327" y="921.7578"/><g><title>Application</title><rect fill="#FFFFFF" fill-opacity="0.00000" height="1309.4453" width="8" x="47.1118" y="86.2344"/><line style="stroke:#181818;stroke-width:0.5;stroke-dasharray:5.0,5.0;" x1="51" x2="51" y1="86.2344" y2="1395.6797"/></g><g><title>CallService</title><rect fill="#FFFFFF" fill-opacity="0.00000" height="1309.4453" width="8" x="319.4702" y="86.2344"/><line style="stroke:#181818;stroke-width:0.5;stroke-dasharray:5.0,5.0;" x1="322.5327" x2="322.5327" y1="86.2344" y2="1395.6797"/></g><g><title>PaginationHandler</title><rect fill="#FFFFFF" fill-opacity="0.00000" height="1309.4453" width="8" x="528.312" y="86.2344"/><line style="stroke:#181818;stroke-width:0.5;stroke-dasharray:5.0,5.0;" x1="531.7158" x2="531.7158" y1="86.2344" y2="1395.6797"/></g><g><title>Source</title><rect fill="#FFFFFF" fill-opacity="0.00000" height="1309.4453" width="8" x="737.3042" y="86.2344"/><line style="stroke:#181818;stroke-width:0.5;stroke-dasharray:5.0,5.0;" x1="741.1084" x2="741.1084" y1="86.2344" y2="1395.6797"/></g><g><title>External API</title><rect fill="#FFFFFF" fill-opacity="0.00000" height="1309.4453" width="8" x="827.9648" y="86.2344"/><line style="stroke:#181818;stroke-width:0.5;stroke-dasharray:5.0,5.0;" x1="831.5" x2="831.5" y1="86.2344" y2="1395.6797"/></g><g><rect fill="#E2E2F0" height="30.2969" rx="2.5" ry="2.5" style="stroke:#181818;stroke-width:0.5;" width="92.2236" x="5" y="54.9375"/><text fill="#000000" font-family="sans-serif" font-size="14" lengthAdjust="spacing" textLength="78.2236" x="12" y="74.9326">Application</text></g><g><rect fill="#E2E2F0" height="30.2969" rx="2.5" ry="2.5" style="stroke:#181818;stroke-width:0.5;" width="92.2236" x="5" y="1394.6797"/><text fill="#000000" font-family="sans-serif" font-size="14" lengthAdjust="spacing" textLength="78.2236" x="12" y="1414.6748">Application</text></g><g><rect fill="#E2E2F0" height="30.2969" rx="2.5" ry="2.5" style="stroke:#181818;stroke-width:0.5;" width="91.875" x="277.5327" y="54.9375"/><text fill="#000000" font-family="sans-serif" font-size="14" lengthAdjust="spacing" textLength="77.875" x="284.5327" y="74.9326">CallService</text></g><g><rect fill="#E2E2F0" height="30.2969" rx="2.5" ry="2.5" style="stroke:#181818;stroke-width:0.5;" width="91.875" x="277.5327" y="1394.6797"/><text fill="#000000" font-family="sans-serif" font-size="14" lengthAdjust="spacing" textLength="77.875" x="284.5327" y="1414.6748">CallService</text></g><g><rect fill="#E2E2F0" height="30.2969" rx="2.5" ry="2.5" style="stroke:#181818;stroke-width:0.5;" width="143.1924" x="460.7158" y="54.9375"/><text fill="#000000" font-family="sans-serif" font-size="14" lengthAdjust="spacing" textLength="129.1924" x="467.7158" y="74.9326">PaginationHandler</text></g><g><rect fill="#E2E2F0" height="30.2969" rx="2.5" ry="2.5" style="stroke:#181818;stroke-width:0.5;" width="143.1924" x="460.7158" y="1394.6797"/><text fill="#000000" font-family="sans-serif" font-size="14" lengthAdjust="spacing" textLength="129.1924" x="467.7158" y="1414.6748">PaginationHandler</text></g><g><rect fill="#E2E2F0" height="30.2969" rx="2.5" ry="2.5" style="stroke:#181818;stroke-width:0.5;" width="62.3916" x="710.1084" y="54.9375"/><text fill="#000000" font-family="sans-serif" font-size="14" lengthAdjust="spacing" textLength="48.3916" x="717.1084" y="74.9326">Source</text></g><g><rect fill="#E2E2F0" height="30.2969" rx="2.5" ry="2.5" style="stroke:#181818;stroke-width:0.5;" width="62.3916" x="710.1084" y="1394.6797"/><text fill="#000000" font-family="sans-serif" font-size="14" lengthAdjust="spacing" textLength="48.3916" x="717.1084" y="1414.6748">Source</text></g><g><rect fill="#E2E2F0" height="30.2969" rx="2.5" ry="2.5" style="stroke:#181818;stroke-width:0.5;" width="98.9297" x="782.5" y="54.9375"/><text fill="#000000" font-family="sans-serif" font-size="14" lengthAdjust="spacing" textLength="84.9297" x="789.5" y="74.9326">External API</text></g><g><rect fill="#E2E2F0" height="30.2969" rx="2.5" ry="2.5" style="stroke:#181818;stroke-width:0.5;" width="98.9297" x="782.5" y="1394.6797"/><text fill="#000000" font-family="sans-serif" font-size="14" lengthAdjust="spacing" textLength="84.9297" x="789.5" y="1414.6748">External API</text></g><g><title>CallService</title><rect fill="#FFFFFF" height="1008.4531" style="stroke:#181818;stroke-width:1;" width="10" x="318.4702" y="197.8984"/></g><g><title>PaginationHandler</title><rect fill="#FFFFFF" height="487.6641" style="stroke:#181818;stroke-width:1;" width="10" x="527.312" y="394.9609"/></g><path d="M5,101.2344 L5,171.2344 L876,171.2344 L876,111.2344 L866,101.2344 L5,101.2344 " fill="#FEFFDD" style="stroke:#181818;stroke-width:0.5;"/><path d="M866,101.2344 L866,111.2344 L876,111.2344 L866,101.2344 " fill="#FEFFDD" style="stroke:#181818;stroke-width:0.5;"/><text fill="#000000" font-family="sans-serif" font-size="13" lengthAdjust="spacing" textLength="384.3569" x="244.0364" y="118.3013">Open Connector automatically detects pagination through:</text><text fill="#000000" font-family="sans-serif" font-size="13" lengthAdjust="spacing" textLength="214.1572" x="244.0364" y="133.4341">1. Configuration-based detection</text><text fill="#000000" font-family="sans-serif" font-size="13" lengthAdjust="spacing" textLength="197.209" x="244.0364" y="148.5669">2. Response pattern detection</text><text fill="#000000" font-family="sans-serif" font-size="13" lengthAdjust="spacing" textLength="154.8638" x="244.0364" y="163.6997">3. Result count analysis</text><g><polygon fill="#181818" points="306.4702,193.8984,316.4702,197.8984,306.4702,201.8984,310.4702,197.8984" style="stroke:#181818;stroke-width:1;"/><line style="stroke:#181818;stroke-width:1;" x1="51.1118" x2="312.4702" y1="197.8984" y2="197.8984"/><text fill="#000000" font-family="sans-serif" font-size="13" lengthAdjust="spacing" textLength="248.3584" x="60.6118" y="192.8325">call(source, endpoint, method, config)</text></g><g><polygon fill="#181818" points="729.3042,223.0313,739.3042,227.0313,729.3042,231.0313,733.3042,227.0313" style="stroke:#181818;stroke-width:1;"/><line style="stroke:#181818;stroke-width:1;" x1="328.4702" x2="735.3042" y1="227.0313" y2="227.0313"/><text fill="#000000" font-family="sans-serif" font-size="13" lengthAdjust="spacing" textLength="62.3403" x="503.717" y="221.9653">validate()</text></g><path d="M746,240.0313 L746,310.0313 L969,310.0313 L969,250.0313 L959,240.0313 L746,240.0313 " fill="#FEFFDD" style="stroke:#181818;stroke-width:0.5;"/><path d="M959,240.0313 L959,250.0313 L969,250.0313 L959,240.0313 " fill="#FEFFDD" style="stroke:#181818;stroke-width:0.5;"/><text fill="#000000" font-family="sans-serif" font-size="13" lengthAdjust="spacing" textLength="202.5029" x="752" y="257.0981">Validates source configuration:</text><text fill="#000000" font-family="sans-serif" font-size="13" lengthAdjust="spacing" textLength="105.4346" x="752" y="272.231">- Enabled status</text><text fill="#000000" font-family="sans-serif" font-size="13" lengthAdjust="spacing" textLength="85.103" x="752" y="287.3638">- API location</text><text fill="#000000" font-family="sans-serif" font-size="13" lengthAdjust="spacing" textLength="104.2539" x="752" y="302.4966">- Authentication</text><g><polygon fill="#181818" points="819.9648,332.6953,829.9648,336.6953,819.9648,340.6953,823.9648,336.6953" style="stroke:#181818;stroke-width:1;"/><line style="stroke:#181818;stroke-width:1;" x1="328.4702" x2="825.9648" y1="336.6953" y2="336.6953"/><text fill="#000000" font-family="sans-serif" font-size="13" lengthAdjust="spacing" textLength="131.1235" x="514.6558" y="331.6294">Initial HTTP Request</text></g><g><polygon fill="#181818" points="339.4702,361.8281,329.4702,365.8281,339.4702,369.8281,335.4702,365.8281" style="stroke:#181818;stroke-width:1;"/><line style="stroke:#181818;stroke-width:1;stroke-dasharray:2.0,2.0;" x1="333.4702" x2="830.9648" y1="365.8281" y2="365.8281"/><text fill="#000000" font-family="sans-serif" font-size="13" lengthAdjust="spacing" textLength="131.644" x="514.3955" y="360.7622">First Page Response</text></g><g><polygon fill="#181818" points="515.312,390.9609,525.312,394.9609,515.312,398.9609,519.312,394.9609" style="stroke:#181818;stroke-width:1;"/><line style="stroke:#181818;stroke-width:1;" x1="328.4702" x2="521.312" y1="394.9609" y2="394.9609"/><text fill="#000000" font-family="sans-serif" font-size="13" lengthAdjust="spacing" textLength="179.8418" x="337.9702" y="389.895">detectPagination(response)</text></g><path d="M542,407.9609 L542,538.9609 L816,538.9609 L816,417.9609 L806,407.9609 L542,407.9609 " fill="#FEFFDD" style="stroke:#181818;stroke-width:0.5;"/><path d="M806,407.9609 L806,417.9609 L816,417.9609 L806,407.9609 " fill="#FEFFDD" style="stroke:#181818;stroke-width:0.5;"/><text fill="#000000" font-family="sans-serif" font-size="13" lengthAdjust="spacing" textLength="214.6016" x="548" y="425.0278">Checks for pagination indicators:</text><text fill="#000000" font-family="sans-serif" font-size="13" lengthAdjust="spacing" textLength="253.0811" x="548" y="440.1606">1. Looks for common result properties:</text><text fill="#000000" font-family="sans-serif" font-size="13" lengthAdjust="spacing" textLength="179.9434" x="560.397" y="455.2935">- results, items, result, data</text><text fill="#000000" font-family="sans-serif" font-size="13" lengthAdjust="spacing" textLength="181.4604" x="548" y="470.4263">2. Checks pagination paths:</text><text fill="#000000" font-family="sans-serif" font-size="13" lengthAdjust="spacing" textLength="198.707" x="560.397" y="485.5591">- next, next_page, next_cursor</text><text fill="#000000" font-family="sans-serif" font-size="13" lengthAdjust="spacing" textLength="204.6992" x="560.397" y="500.6919">- total, totalResults, total_items</text><text fill="#000000" font-family="sans-serif" font-size="13" lengthAdjust="spacing" textLength="208.6157" x="560.397" y="515.8247">- totalPages, total_pages, pages</text><text fill="#000000" font-family="sans-serif" font-size="13" lengthAdjust="spacing" textLength="163.3125" x="548" y="530.9575">3. Analyzes result counts</text><path d="M450.7158,551.0234 L515.1587,551.0234 L515.1587,558.1563 L505.1587,568.1563 L450.7158,568.1563 L450.7158,551.0234 " fill="#EEEEEE" style="stroke:#000000;stroke-width:1.5;"/><rect fill="#FFFFFF" fill-opacity="0.00000" height="303.4688" style="stroke:#000000;stroke-width:1.5;" width="559.2217" x="450.7158" y="551.0234"/><text fill="#000000" font-family="sans-serif" font-size="13" font-weight="bold" lengthAdjust="spacing" textLength="19.4429" x="465.7158" y="564.0903">alt</text><text fill="#000000" font-family="sans-serif" font-size="11" font-weight="bold" lengthAdjust="spacing" textLength="128.3638" x="530.1587" y="563.2339">[Property Detection]</text><g><line style="stroke:#181818;stroke-width:1;" x1="537.312" x2="579.312" y1="616.0547" y2="616.0547"/><line style="stroke:#181818;stroke-width:1;" x1="579.312" x2="579.312" y1="616.0547" y2="629.0547"/><line style="stroke:#181818;stroke-width:1;" x1="538.312" x2="579.312" y1="629.0547" y2="629.0547"/><polygon fill="#181818" points="548.312,625.0547,538.312,629.0547,548.312,633.0547,544.312,629.0547" style="stroke:#181818;stroke-width:1;"/><text fill="#000000" font-family="sans-serif" font-size="13" lengthAdjust="spacing" textLength="155.1685" x="544.312" y="610.9888">checkResultProperties()</text></g><path d="M721.1685,573.1563 L721.1685,658.1563 L985.1685,658.1563 L985.1685,583.1563 L975.1685,573.1563 L721.1685,573.1563 " fill="#FEFFDD" style="stroke:#181818;stroke-width:0.5;"/><path d="M975.1685,573.1563 L975.1685,583.1563 L985.1685,583.1563 L975.1685,573.1563 " fill="#FEFFDD" style="stroke:#181818;stroke-width:0.5;"/><text fill="#000000" font-family="sans-serif" font-size="13" lengthAdjust="spacing" textLength="243.0264" x="727.1685" y="590.2231">Checks for result wrapper properties:</text><text fill="#000000" font-family="sans-serif" font-size="13" lengthAdjust="spacing" textLength="52.6602" x="727.1685" y="605.356">- results</text><text fill="#000000" font-family="sans-serif" font-size="13" lengthAdjust="spacing" textLength="44.9668" x="727.1685" y="620.4888">- items</text><text fill="#000000" font-family="sans-serif" font-size="13" lengthAdjust="spacing" textLength="45.8872" x="727.1685" y="635.6216">- result</text><text fill="#000000" font-family="sans-serif" font-size="13" lengthAdjust="spacing" textLength="38.105" x="727.1685" y="650.7544">- data</text><line style="stroke:#000000;stroke-width:1;stroke-dasharray:2.0,2.0;" x1="450.7158" x2="1009.9375" y1="664.8203" y2="664.8203"/><text fill="#000000" font-family="sans-serif" font-size="11" font-weight="bold" lengthAdjust="spacing" textLength="137.8008" x="455.7158" y="675.0308">[Next Page Detection]</text><g><line style="stroke:#181818;stroke-width:1;" x1="537.312" x2="579.312" y1="718.957" y2="718.957"/><line style="stroke:#181818;stroke-width:1;" x1="579.312" x2="579.312" y1="718.957" y2="731.957"/><line style="stroke:#181818;stroke-width:1;" x1="538.312" x2="579.312" y1="731.957" y2="731.957"/><polygon fill="#181818" points="548.312,727.957,538.312,731.957,548.312,735.957,544.312,731.957" style="stroke:#181818;stroke-width:1;"/><text fill="#000000" font-family="sans-serif" font-size="13" lengthAdjust="spacing" textLength="174.9922" x="544.312" y="713.8911">checkNextPageIndicators()</text></g><path d="M740.9922,683.625 L740.9922,753.625 L988.9922,753.625 L988.9922,693.625 L978.9922,683.625 L740.9922,683.625 " fill="#FEFFDD" style="stroke:#181818;stroke-width:0.5;"/><path d="M978.9922,683.625 L978.9922,693.625 L988.9922,693.625 L978.9922,683.625 " fill="#FEFFDD" style="stroke:#181818;stroke-width:0.5;"/><text fill="#000000" font-family="sans-serif" font-size="13" lengthAdjust="spacing" textLength="211.0405" x="746.9922" y="700.6919">Checks for next page indicators:</text><text fill="#000000" font-family="sans-serif" font-size="13" lengthAdjust="spacing" textLength="227.6333" x="746.9922" y="715.8247">- next/next_page/next_cursor URLs</text><text fill="#000000" font-family="sans-serif" font-size="13" lengthAdjust="spacing" textLength="203.4932" x="746.9922" y="730.9575">- nextPage/nextCursor integers</text><text fill="#000000" font-family="sans-serif" font-size="13" lengthAdjust="spacing" textLength="118.7075" x="746.9922" y="746.0903">- _links.next paths</text><line style="stroke:#000000;stroke-width:1;stroke-dasharray:2.0,2.0;" x1="450.7158" x2="1009.9375" y1="760.1563" y2="760.1563"/><text fill="#000000" font-family="sans-serif" font-size="11" font-weight="bold" lengthAdjust="spacing" textLength="146.0239" x="455.7158" y="770.3667">[Total Count Detection]</text><g><line style="stroke:#181818;stroke-width:1;" x1="537.312" x2="579.312" y1="814.293" y2="814.293"/><line style="stroke:#181818;stroke-width:1;" x1="579.312" x2="579.312" y1="814.293" y2="827.293"/><line style="stroke:#181818;stroke-width:1;" x1="538.312" x2="579.312" y1="827.293" y2="827.293"/><polygon fill="#181818" points="548.312,823.293,538.312,827.293,548.312,831.293,544.312,827.293" style="stroke:#181818;stroke-width:1;"/><text fill="#000000" font-family="sans-serif" font-size="13" lengthAdjust="spacing" textLength="126.1533" x="544.312" y="809.2271">checkTotalCounts()</text></g><path d="M692.1533,778.9609 L692.1533,848.9609 L901.1533,848.9609 L901.1533,788.9609 L891.1533,778.9609 L692.1533,778.9609 " fill="#FEFFDD" style="stroke:#181818;stroke-width:0.5;"/><path d="M891.1533,778.9609 L891.1533,788.9609 L901.1533,788.9609 L891.1533,778.9609 " fill="#FEFFDD" style="stroke:#181818;stroke-width:0.5;"/><text fill="#000000" font-family="sans-serif" font-size="13" lengthAdjust="spacing" textLength="117.9902" x="698.1533" y="796.0278">Compares counts:</text><text fill="#000000" font-family="sans-serif" font-size="13" lengthAdjust="spacing" textLength="156.6602" x="698.1533" y="811.1606">- total vs current results</text><text fill="#000000" font-family="sans-serif" font-size="13" lengthAdjust="spacing" textLength="188.665" x="698.1533" y="826.2935">- current page vs total pages</text><text fill="#000000" font-family="sans-serif" font-size="13" lengthAdjust="spacing" textLength="160.564" x="698.1533" y="841.4263">- Collection size vs limits</text><g><polygon fill="#181818" points="339.4702,878.625,329.4702,882.625,339.4702,886.625,335.4702,882.625" style="stroke:#181818;stroke-width:1;"/><line style="stroke:#181818;stroke-width:1;stroke-dasharray:2.0,2.0;" x1="333.4702" x2="531.312" y1="882.625" y2="882.625"/><text fill="#000000" font-family="sans-serif" font-size="13" lengthAdjust="spacing" textLength="93.3804" x="383.7009" y="877.5591">PaginationInfo</text></g><path d="M257.5327,897.625 L321.9756,897.625 L321.9756,904.7578 L311.9756,914.7578 L257.5327,914.7578 L257.5327,897.625 " fill="#EEEEEE" style="stroke:#000000;stroke-width:1.5;"/><rect fill="#FFFFFF" fill-opacity="0.00000" height="200.0625" style="stroke:#000000;stroke-width:1.5;" width="851.6118" x="257.5327" y="897.625"/><text fill="#000000" font-family="sans-serif" font-size="13" font-weight="bold" lengthAdjust="spacing" textLength="19.4429" x="272.5327" y="910.6919">alt</text><text fill="#000000" font-family="sans-serif" font-size="11" font-weight="bold" lengthAdjust="spacing" textLength="137.1079" x="336.9756" y="909.8354">[Pagination Detected]</text><path d="M267.5327,921.7578 L344.1567,921.7578 L344.1567,928.8906 L334.1567,938.8906 L267.5327,938.8906 L267.5327,921.7578 " fill="#EEEEEE" style="stroke:#000000;stroke-width:1.5;"/><rect fill="#FFFFFF" fill-opacity="0.00000" height="168.9297" style="stroke:#000000;stroke-width:1.5;" width="831.6118" x="267.5327" y="921.7578"/><text fill="#000000" font-family="sans-serif" font-size="13" font-weight="bold" lengthAdjust="spacing" textLength="31.624" x="282.5327" y="934.8247">loop</text><text fill="#000000" font-family="sans-serif" font-size="11" font-weight="bold" lengthAdjust="spacing" textLength="309.0474" x="359.1567" y="933.9683">[Until All Pages Retrieved or Max Pages Reached]</text><g><polygon fill="#181818" points="819.9648,981.7227,829.9648,985.7227,819.9648,989.7227,823.9648,985.7227" style="stroke:#181818;stroke-width:1;"/><line style="stroke:#181818;stroke-width:1;" x1="328.4702" x2="825.9648" y1="985.7227" y2="985.7227"/><text fill="#000000" font-family="sans-serif" font-size="13" lengthAdjust="spacing" textLength="124.2236" x="518.1057" y="980.6567">Request Next Page</text></g><path d="M836,943.8906 L836,1013.8906 L1083,1013.8906 L1083,953.8906 L1073,943.8906 L836,943.8906 " fill="#FEFFDD" style="stroke:#181818;stroke-width:0.5;"/><path d="M1073,943.8906 L1073,953.8906 L1083,953.8906 L1073,943.8906 " fill="#FEFFDD" style="stroke:#181818;stroke-width:0.5;"/><text fill="#000000" font-family="sans-serif" font-size="13" lengthAdjust="spacing" textLength="125.7153" x="842" y="960.9575">Follows pagination:</text><text fill="#000000" font-family="sans-serif" font-size="13" lengthAdjust="spacing" textLength="214.6968" x="842" y="976.0903">- Uses next page URL if available</text><text fill="#000000" font-family="sans-serif" font-size="13" lengthAdjust="spacing" textLength="179.6831" x="842" y="991.2231">- Increments page counters</text><text fill="#000000" font-family="sans-serif" font-size="13" lengthAdjust="spacing" textLength="226.1797" x="842" y="1006.356">- Respects max_pages limit (1000)</text><g><polygon fill="#181818" points="339.4702,1036.5547,329.4702,1040.5547,339.4702,1044.5547,335.4702,1040.5547" style="stroke:#181818;stroke-width:1;"/><line style="stroke:#181818;stroke-width:1;stroke-dasharray:2.0,2.0;" x1="333.4702" x2="830.9648" y1="1040.5547" y2="1040.5547"/><text fill="#000000" font-family="sans-serif" font-size="13" lengthAdjust="spacing" textLength="99.2075" x="530.6138" y="1035.4888">Page Response</text></g><g><line style="stroke:#181818;stroke-width:1;" x1="328.4702" x2="370.4702" y1="1069.6875" y2="1069.6875"/><line style="stroke:#181818;stroke-width:1;" x1="370.4702" x2="370.4702" y1="1069.6875" y2="1082.6875"/><line style="stroke:#181818;stroke-width:1;" x1="329.4702" x2="370.4702" y1="1082.6875" y2="1082.6875"/><polygon fill="#181818" points="339.4702,1078.6875,329.4702,1082.6875,339.4702,1086.6875,335.4702,1082.6875" style="stroke:#181818;stroke-width:1;"/><text fill="#000000" font-family="sans-serif" font-size="13" lengthAdjust="spacing" textLength="99.9248" x="335.4702" y="1064.6216">mergeResults()</text></g><g><line style="stroke:#181818;stroke-width:1;" x1="328.4702" x2="370.4702" y1="1145.0195" y2="1145.0195"/><line style="stroke:#181818;stroke-width:1;" x1="370.4702" x2="370.4702" y1="1145.0195" y2="1158.0195"/><line style="stroke:#181818;stroke-width:1;" x1="329.4702" x2="370.4702" y1="1158.0195" y2="1158.0195"/><polygon fill="#181818" points="339.4702,1154.0195,329.4702,1158.0195,339.4702,1162.0195,335.4702,1158.0195" style="stroke:#181818;stroke-width:1;"/><text fill="#000000" font-family="sans-serif" font-size="13" lengthAdjust="spacing" textLength="107.9102" x="335.4702" y="1139.9536">processResults()</text></g><path d="M464.9102,1109.6875 L464.9102,1179.6875 L625.9102,1179.6875 L625.9102,1119.6875 L615.9102,1109.6875 L464.9102,1109.6875 " fill="#FEFFDD" style="stroke:#181818;stroke-width:0.5;"/><path d="M615.9102,1109.6875 L615.9102,1119.6875 L625.9102,1119.6875 L615.9102,1109.6875 " fill="#FEFFDD" style="stroke:#181818;stroke-width:0.5;"/><text fill="#000000" font-family="sans-serif" font-size="13" lengthAdjust="spacing" textLength="136.0874" x="470.9102" y="1126.7544">- Combines all pages</text><text fill="#000000" font-family="sans-serif" font-size="13" lengthAdjust="spacing" textLength="140.0166" x="470.9102" y="1141.8872">- Removes duplicates</text><text fill="#000000" font-family="sans-serif" font-size="13" lengthAdjust="spacing" textLength="100.7373" x="470.9102" y="1157.02">- Orders results</text><text fill="#000000" font-family="sans-serif" font-size="13" lengthAdjust="spacing" textLength="104.3301" x="470.9102" y="1172.1528">- Handles errors</text><g><polygon fill="#181818" points="62.1118,1202.3516,52.1118,1206.3516,62.1118,1210.3516,58.1118,1206.3516" style="stroke:#181818;stroke-width:1;"/><line style="stroke:#181818;stroke-width:1;stroke-dasharray:2.0,2.0;" x1="56.1118" x2="322.4702" y1="1206.3516" y2="1206.3516"/><text fill="#000000" font-family="sans-serif" font-size="13" lengthAdjust="spacing" textLength="133.0151" x="120.7834" y="1201.2856">Complete Result Set</text></g><path d="M5,1219.3516 L5,1380.3516 L876,1380.3516 L876,1229.3516 L866,1219.3516 L5,1219.3516 " fill="#FEFFDD" style="stroke:#181818;stroke-width:0.5;"/><path d="M866,1219.3516 L866,1229.3516 L876,1229.3516 L866,1219.3516 " fill="#FEFFDD" style="stroke:#181818;stroke-width:0.5;"/><text fill="#000000" font-family="sans-serif" font-size="13" lengthAdjust="spacing" textLength="189.6426" x="312.3149" y="1236.4185">Pagination Detection Details:</text><text fill="#000000" font-family="sans-serif" font-size="13" lengthAdjust="spacing" textLength="132.0122" x="312.3149" y="1251.5513">1. Result Properties:</text><text fill="#000000" font-family="sans-serif" font-size="13" lengthAdjust="spacing" textLength="179.9434" x="324.7119" y="1266.6841">- results, items, result, data</text><text fill="#000000" font-family="sans-serif" font-size="13" lengthAdjust="spacing" textLength="155.9683" x="312.3149" y="1281.8169">2. Next Page Indicators:</text><text fill="#000000" font-family="sans-serif" font-size="13" lengthAdjust="spacing" textLength="235.4028" x="324.7119" y="1296.9497">- next, next_page, next_cursor URLs</text><text fill="#000000" font-family="sans-serif" font-size="13" lengthAdjust="spacing" textLength="207.3779" x="324.7119" y="1312.0825">- nextPage, nextCursor integers</text><text fill="#000000" font-family="sans-serif" font-size="13" lengthAdjust="spacing" textLength="117.2158" x="312.3149" y="1327.2153">3. Count Analysis:</text><text fill="#000000" font-family="sans-serif" font-size="13" lengthAdjust="spacing" textLength="156.6602" x="324.7119" y="1342.3481">- total vs current results</text><text fill="#000000" font-family="sans-serif" font-size="13" lengthAdjust="spacing" textLength="188.665" x="324.7119" y="1357.481">- current page vs total pages</text><text fill="#000000" font-family="sans-serif" font-size="13" lengthAdjust="spacing" textLength="162.9761" x="324.7119" y="1372.6138">- max_pages limit (1000)</text><text fill="#888888" font-family="sans-serif" font-size="10" lengthAdjust="spacing" textLength="81.4648" x="1036.6797" y="14.2822">Open Connector</text><text fill="#888888" font-family="sans-serif" font-size="10" lengthAdjust="spacing" textLength="81.4648" x="518.3398" y="1436.2588">Open Connector</text><!--SRC=[dLPDRziu4BthLmnwIW0xJRSt7nRmUblOGBiLugJNW95ecmX5QadAIVhhz_53ecIdGR0-M2BvE9nvypWZ9vpaLBAzKCm9hUXlxdWLtfYgQOq_ATI-s6djk5dGZvOhMccb0DAcE71Mlp9TjCmuKOcMAKSVbcqhHHNCVo1c2UCfOCMat79p51KFWDLskfxT2_vm4r3bUehQwiua0oVxlpp3TyKaBSjDzA3S58Lz50emrf3b_tPSLVmxjvRj-LAAlQAAA-mQeGothLQsH_t5fNvQ6gEVo9cE5uK2GwIFtFW0P-4CEY66METqWqWgHFn2TU3QKflfTmUZk_rXWQsVhlp6dTXt9gpD7vZbTTg4CI1_ND5DyWf6d8zoiluvh7VIKQKxCC50meiLjk2gzkuM1Lob-PzWV47UfmiRI9mH0AqMoiseuUwWwnaiU5yk2mRZHuPGaQLYjVMxiVd8fAWnUt4PUJ1YVt2aTqW5qS-qQ2cQJxPIN3xMENrHx44YFEkOwsoO0eCaTHHEdEZS0Lb9Mif1H2y0Nz162IUGwVNjROdOaLVh2czedgByAenrNl1yeAutKAuNYRqik8i-wwF08RoJ8353j3hmwj7I3caU9LIeslkhZKqv_QPrGbMwQO0mCKEjqIs7Q7a0aeythjWP2SSRFE9uHk2InUodCqVdGGQ7R47nP-3z_pqmFBrMdR6ufGdZj6Do5Xyt_ObXT1_EdU0ySSDo6mVX4TMsz0BxXKIRaUn6ScEOAsEWBxdKX1FATP-3oWSLFIa7KY0iZygyHxV6hASpdmnhiUcSqCpeC1u5EApIC4uy4_N-SucBzWyeZ09wCm0FywZD881tXE3J4_WyqKtEviSXcHz7kQIxcszsWYjxn2e2S9VvdfiCkaTTVxHNwKI8vZpIMvzb525VEjwCDG03xlT1wWPb5Cg8aiX11IdH4GkTCRZTPpdgvmCjmCKDlUWYPgMbJ6tBYby19aKZt4bGgYuAxtgg1VcQRzHE5pMVNF6WrTF6oEjWKMhTqXrA4NgAb44D5lN46S6FA6BW-pjx7gOPIAgJhs0YLwjKeBAa1j0PV_xt5L7gf_5rNunMvtHdSLoM43H1OaVio8JqnNM2tQZAy0QysWWEQSdwY21V8KE7QjXplEsHLhhuT7rzVJbWUuBxyRZWJaljb0I_td2pvwdk9F7uF8LSPHGkSuM-ct4JWhm0cWUXu1-QsA0D7q23Zcofxk8dI9h-OV3LOaTAcySl7I0vEhgnqzxYqzMsYw1X2HdqJNNBtLWqlY6- -X7mwkSLtf2NlYiaY-N_QGAv86rEYyRR7M1KDNBHY8Zpgl7vAbM2PVg8M1Jlki7lkC3pt-ahPU4_]--></g></svg>