<svg xmlns="http://www.w3.org/2000/svg" xmlns:xlink="http://www.w3.org/1999/xlink" contentStyleType="text/css" data-diagram-type="SEQUENCE" height="1401px" preserveAspectRatio="none" style="width:1047px;height:1401px;background:#FFFFFF;" version="1.1" viewBox="0 0 1047 1401" width="1047px" zoomAndPan="magnify"><title>Pagination Detection and Handling</title><defs/><g><text fill="#000000" font-family="sans-serif" font-size="14" font-weight="bold" lengthAdjust="spacing" textLength="276.4932" x="381.6797" y="40.6357">Pagination Detection and Handling</text><g><title>CallService</title><rect fill="#FFFFFF" height="917.6563" style="stroke:#181818;stroke-width:1;" width="10" x="318.4702" y="197.8984"/></g><g><title>PaginationHandler</title><rect fill="#FFFFFF" height="396.8672" style="stroke:#181818;stroke-width:1;" width="10" x="527.312" y="394.9609"/></g><rect fill="#FFFFFF" fill-opacity="0.00000" height="273.2031" style="stroke:#000000;stroke-width:1.5;" width="533.5073" x="450.7158" y="490.4922"/><rect fill="#FFFFFF" fill-opacity="0.00000" height="200.0625" style="stroke:#000000;stroke-width:1.5;" width="773.3198" x="257.5327" y="806.8281"/><rect fill="#FFFFFF" fill-opacity="0.00000" height="168.9297" style="stroke:#000000;stroke-width:1.5;" width="753.3198" x="267.5327" y="830.9609"/><g><title>Application</title><rect fill="#FFFFFF" fill-opacity="0.00000" height="1264.0469" width="8" x="47.1118" y="86.2344"/><line style="stroke:#181818;stroke-width:0.5;stroke-dasharray:5.0,5.0;" x1="51" x2="51" y1="86.2344" y2="1350.2813"/></g><g><title>CallService</title><rect fill="#FFFFFF" fill-opacity="0.00000" height="1264.0469" width="8" x="319.4702" y="86.2344"/><line style="stroke:#181818;stroke-width:0.5;stroke-dasharray:5.0,5.0;" x1="322.5327" x2="322.5327" y1="86.2344" y2="1350.2813"/></g><g><title>PaginationHandler</title><rect fill="#FFFFFF" fill-opacity="0.00000" height="1264.0469" width="8" x="528.312" y="86.2344"/><line style="stroke:#181818;stroke-width:0.5;stroke-dasharray:5.0,5.0;" x1="531.7158" x2="531.7158" y1="86.2344" y2="1350.2813"/></g><g><title>Source</title><rect fill="#FFFFFF" fill-opacity="0.00000" height="1264.0469" width="8" x="723.4219" y="86.2344"/><line style="stroke:#181818;stroke-width:0.5;stroke-dasharray:5.0,5.0;" x1="727.2261" x2="727.2261" y1="86.2344" y2="1350.2813"/></g><g><title>External API</title><rect fill="#FFFFFF" fill-opacity="0.00000" height="1264.0469" width="8" x="814.0825" y="86.2344"/><line style="stroke:#181818;stroke-width:0.5;stroke-dasharray:5.0,5.0;" x1="817.6177" x2="817.6177" y1="86.2344" y2="1350.2813"/></g><g><rect fill="#E2E2F0" height="30.2969" rx="2.5" ry="2.5" style="stroke:#181818;stroke-width:0.5;" width="92.2236" x="5" y="54.9375"/><text fill="#000000" font-family="sans-serif" font-size="14" lengthAdjust="spacing" textLength="78.2236" x="12" y="74.9326">Application</text></g><g><rect fill="#E2E2F0" height="30.2969" rx="2.5" ry="2.5" style="stroke:#181818;stroke-width:0.5;" width="92.2236" x="5" y="1349.2813"/><text fill="#000000" font-family="sans-serif" font-size="14" lengthAdjust="spacing" textLength="78.2236" x="12" y="1369.2764">Application</text></g><g><rect fill="#E2E2F0" height="30.2969" rx="2.5" ry="2.5" style="stroke:#181818;stroke-width:0.5;" width="91.875" x="277.5327" y="54.9375"/><text fill="#000000" font-family="sans-serif" font-size="14" lengthAdjust="spacing" textLength="77.875" x="284.5327" y="74.9326">CallService</text></g><g><rect fill="#E2E2F0" height="30.2969" rx="2.5" ry="2.5" style="stroke:#181818;stroke-width:0.5;" width="91.875" x="277.5327" y="1349.2813"/><text fill="#000000" font-family="sans-serif" font-size="14" lengthAdjust="spacing" textLength="77.875" x="284.5327" y="1369.2764">CallService</text></g><g><rect fill="#E2E2F0" height="30.2969" rx="2.5" ry="2.5" style="stroke:#181818;stroke-width:0.5;" width="143.1924" x="460.7158" y="54.9375"/><text fill="#000000" font-family="sans-serif" font-size="14" lengthAdjust="spacing" textLength="129.1924" x="467.7158" y="74.9326">PaginationHandler</text></g><g><rect fill="#E2E2F0" height="30.2969" rx="2.5" ry="2.5" style="stroke:#181818;stroke-width:0.5;" width="143.1924" x="460.7158" y="1349.2813"/><text fill="#000000" font-family="sans-serif" font-size="14" lengthAdjust="spacing" textLength="129.1924" x="467.7158" y="1369.2764">PaginationHandler</text></g><g><rect fill="#E2E2F0" height="30.2969" rx="2.5" ry="2.5" style="stroke:#181818;stroke-width:0.5;" width="62.3916" x="696.2261" y="54.9375"/><text fill="#000000" font-family="sans-serif" font-size="14" lengthAdjust="spacing" textLength="48.3916" x="703.2261" y="74.9326">Source</text></g><g><rect fill="#E2E2F0" height="30.2969" rx="2.5" ry="2.5" style="stroke:#181818;stroke-width:0.5;" width="62.3916" x="696.2261" y="1349.2813"/><text fill="#000000" font-family="sans-serif" font-size="14" lengthAdjust="spacing" textLength="48.3916" x="703.2261" y="1369.2764">Source</text></g><g><rect fill="#E2E2F0" height="30.2969" rx="2.5" ry="2.5" style="stroke:#181818;stroke-width:0.5;" width="98.9297" x="768.6177" y="54.9375"/><text fill="#000000" font-family="sans-serif" font-size="14" lengthAdjust="spacing" textLength="84.9297" x="775.6177" y="74.9326">External API</text></g><g><rect fill="#E2E2F0" height="30.2969" rx="2.5" ry="2.5" style="stroke:#181818;stroke-width:0.5;" width="98.9297" x="768.6177" y="1349.2813"/><text fill="#000000" font-family="sans-serif" font-size="14" lengthAdjust="spacing" textLength="84.9297" x="775.6177" y="1369.2764">External API</text></g><g><title>CallService</title><rect fill="#FFFFFF" height="917.6563" style="stroke:#181818;stroke-width:1;" width="10" x="318.4702" y="197.8984"/></g><g><title>PaginationHandler</title><rect fill="#FFFFFF" height="396.8672" style="stroke:#181818;stroke-width:1;" width="10" x="527.312" y="394.9609"/></g><path d="M5,101.2344 L5,171.2344 L862,171.2344 L862,111.2344 L852,101.2344 L5,101.2344 " fill="#FEFFDD" style="stroke:#181818;stroke-width:0.5;"/><path d="M852,101.2344 L852,111.2344 L862,111.2344 L852,101.2344 " fill="#FEFFDD" style="stroke:#181818;stroke-width:0.5;"/><text fill="#000000" font-family="sans-serif" font-size="13" lengthAdjust="spacing" textLength="384.3569" x="237.0952" y="118.3013">Open Connector automatically detects pagination through:</text><text fill="#000000" font-family="sans-serif" font-size="13" lengthAdjust="spacing" textLength="214.1572" x="237.0952" y="133.4341">1. Configuration-based detection</text><text fill="#000000" font-family="sans-serif" font-size="13" lengthAdjust="spacing" textLength="197.209" x="237.0952" y="148.5669">2. Response pattern detection</text><text fill="#000000" font-family="sans-serif" font-size="13" lengthAdjust="spacing" textLength="154.8638" x="237.0952" y="163.6997">3. Result count analysis</text><g><polygon fill="#181818" points="306.4702,193.8984,316.4702,197.8984,306.4702,201.8984,310.4702,197.8984" style="stroke:#181818;stroke-width:1;"/><line style="stroke:#181818;stroke-width:1;" x1="51.1118" x2="312.4702" y1="197.8984" y2="197.8984"/><text fill="#000000" font-family="sans-serif" font-size="13" lengthAdjust="spacing" textLength="248.3584" x="60.6118" y="192.8325">call(source, endpoint, method, config)</text></g><g><polygon fill="#181818" points="715.4219,223.0313,725.4219,227.0313,715.4219,231.0313,719.4219,227.0313" style="stroke:#181818;stroke-width:1;"/><line style="stroke:#181818;stroke-width:1;" x1="328.4702" x2="721.4219" y1="227.0313" y2="227.0313"/><text fill="#000000" font-family="sans-serif" font-size="13" lengthAdjust="spacing" textLength="62.3403" x="496.7759" y="221.9653">validate()</text></g><path d="M732,240.0313 L732,310.0313 L955,310.0313 L955,250.0313 L945,240.0313 L732,240.0313 " fill="#FEFFDD" style="stroke:#181818;stroke-width:0.5;"/><path d="M945,240.0313 L945,250.0313 L955,250.0313 L945,240.0313 " fill="#FEFFDD" style="stroke:#181818;stroke-width:0.5;"/><text fill="#000000" font-family="sans-serif" font-size="13" lengthAdjust="spacing" textLength="202.5029" x="738" y="257.0981">Validates source configuration:</text><text fill="#000000" font-family="sans-serif" font-size="13" lengthAdjust="spacing" textLength="105.4346" x="738" y="272.231">- Enabled status</text><text fill="#000000" font-family="sans-serif" font-size="13" lengthAdjust="spacing" textLength="85.103" x="738" y="287.3638">- API location</text><text fill="#000000" font-family="sans-serif" font-size="13" lengthAdjust="spacing" textLength="104.2539" x="738" y="302.4966">- Authentication</text><g><polygon fill="#181818" points="806.0825,332.6953,816.0825,336.6953,806.0825,340.6953,810.0825,336.6953" style="stroke:#181818;stroke-width:1;"/><line style="stroke:#181818;stroke-width:1;" x1="328.4702" x2="812.0825" y1="336.6953" y2="336.6953"/><text fill="#000000" font-family="sans-serif" font-size="13" lengthAdjust="spacing" textLength="131.1235" x="507.7146" y="331.6294">Initial HTTP Request</text></g><g><polygon fill="#181818" points="339.4702,361.8281,329.4702,365.8281,339.4702,369.8281,335.4702,365.8281" style="stroke:#181818;stroke-width:1;"/><line style="stroke:#181818;stroke-width:1;stroke-dasharray:2.0,2.0;" x1="333.4702" x2="817.0825" y1="365.8281" y2="365.8281"/><text fill="#000000" font-family="sans-serif" font-size="13" lengthAdjust="spacing" textLength="131.644" x="507.4543" y="360.7622">First Page Response</text></g><g><polygon fill="#181818" points="515.312,390.9609,525.312,394.9609,515.312,398.9609,519.312,394.9609" style="stroke:#181818;stroke-width:1;"/><line style="stroke:#181818;stroke-width:1;" x1="328.4702" x2="521.312" y1="394.9609" y2="394.9609"/><text fill="#000000" font-family="sans-serif" font-size="13" lengthAdjust="spacing" textLength="179.8418" x="337.9702" y="389.895">detectPagination(response)</text></g><path d="M542,407.9609 L542,477.9609 L806,477.9609 L806,417.9609 L796,407.9609 L542,407.9609 " fill="#FEFFDD" style="stroke:#181818;stroke-width:0.5;"/><path d="M796,407.9609 L796,417.9609 L806,417.9609 L796,407.9609 " fill="#FEFFDD" style="stroke:#181818;stroke-width:0.5;"/><text fill="#000000" font-family="sans-serif" font-size="13" lengthAdjust="spacing" textLength="214.6016" x="548" y="425.0278">Checks for pagination indicators:</text><text fill="#000000" font-family="sans-serif" font-size="13" lengthAdjust="spacing" textLength="243.0391" x="548" y="440.1606">1. Configured paths (meta.total, etc.)</text><text fill="#000000" font-family="sans-serif" font-size="13" lengthAdjust="spacing" textLength="221.8188" x="548" y="455.2935">2. Common patterns (next, _links)</text><text fill="#000000" font-family="sans-serif" font-size="13" lengthAdjust="spacing" textLength="190.8296" x="548" y="470.4263">3. Result count vs total items</text><path d="M450.7158,490.4922 L515.1587,490.4922 L515.1587,497.625 L505.1587,507.625 L450.7158,507.625 L450.7158,490.4922 " fill="#EEEEEE" style="stroke:#000000;stroke-width:1.5;"/><rect fill="#FFFFFF" fill-opacity="0.00000" height="273.2031" style="stroke:#000000;stroke-width:1.5;" width="533.5073" x="450.7158" y="490.4922"/><text fill="#000000" font-family="sans-serif" font-size="13" font-weight="bold" lengthAdjust="spacing" textLength="19.4429" x="465.7158" y="503.5591">alt</text><text fill="#000000" font-family="sans-serif" font-size="11" font-weight="bold" lengthAdjust="spacing" textLength="200.8628" x="530.1587" y="502.7026">[Configuration-based Detection]</text><g><line style="stroke:#181818;stroke-width:1;" x1="537.312" x2="579.312" y1="532.8242" y2="532.8242"/><line style="stroke:#181818;stroke-width:1;" x1="579.312" x2="579.312" y1="532.8242" y2="545.8242"/><line style="stroke:#181818;stroke-width:1;" x1="538.312" x2="579.312" y1="545.8242" y2="545.8242"/><polygon fill="#181818" points="548.312,541.8242,538.312,545.8242,548.312,549.8242,544.312,545.8242" style="stroke:#181818;stroke-width:1;"/><text fill="#000000" font-family="sans-serif" font-size="13" lengthAdjust="spacing" textLength="155.6636" x="544.312" y="527.7583">checkConfiguredPaths()</text></g><path d="M721.6636,512.625 L721.6636,552.625 L931.6636,552.625 L931.6636,522.625 L921.6636,512.625 L721.6636,512.625 " fill="#FEFFDD" style="stroke:#181818;stroke-width:0.5;"/><path d="M921.6636,512.625 L921.6636,522.625 L931.6636,522.625 L921.6636,512.625 " fill="#FEFFDD" style="stroke:#181818;stroke-width:0.5;"/><text fill="#000000" font-family="sans-serif" font-size="13" lengthAdjust="spacing" textLength="178.4897" x="727.6636" y="529.6919">Looks for pagination info at</text><text fill="#000000" font-family="sans-serif" font-size="13" lengthAdjust="spacing" textLength="189.522" x="727.6636" y="544.8247">configured paths in response</text><line style="stroke:#000000;stroke-width:1;stroke-dasharray:2.0,2.0;" x1="450.7158" x2="984.2231" y1="558.8906" y2="558.8906"/><text fill="#000000" font-family="sans-serif" font-size="11" font-weight="bold" lengthAdjust="spacing" textLength="162.5938" x="455.7158" y="569.1011">[Pattern-based Detection]</text><g><line style="stroke:#181818;stroke-width:1;" x1="537.312" x2="579.312" y1="620.5938" y2="620.5938"/><line style="stroke:#181818;stroke-width:1;" x1="579.312" x2="579.312" y1="620.5938" y2="633.5938"/><line style="stroke:#181818;stroke-width:1;" x1="538.312" x2="579.312" y1="633.5938" y2="633.5938"/><polygon fill="#181818" points="548.312,629.5938,538.312,633.5938,548.312,637.5938,544.312,633.5938" style="stroke:#181818;stroke-width:1;"/><text fill="#000000" font-family="sans-serif" font-size="13" lengthAdjust="spacing" textLength="161.1099" x="544.312" y="615.5278">checkCommonPatterns()</text></g><path d="M727.1099,577.6953 L727.1099,662.6953 L963.1099,662.6953 L963.1099,587.6953 L953.1099,577.6953 L727.1099,577.6953 " fill="#FEFFDD" style="stroke:#181818;stroke-width:0.5;"/><path d="M953.1099,577.6953 L953.1099,587.6953 L963.1099,587.6953 L953.1099,577.6953 " fill="#FEFFDD" style="stroke:#181818;stroke-width:0.5;"/><text fill="#000000" font-family="sans-serif" font-size="13" lengthAdjust="spacing" textLength="215.8013" x="733.1099" y="594.7622">Searches for common pagination</text><text fill="#000000" font-family="sans-serif" font-size="13" lengthAdjust="spacing" textLength="86.0298" x="733.1099" y="609.895">patterns like:</text><text fill="#000000" font-family="sans-serif" font-size="13" lengthAdjust="spacing" textLength="131.9932" x="733.1099" y="625.0278">- next/previous links</text><text fill="#000000" font-family="sans-serif" font-size="13" lengthAdjust="spacing" textLength="78.2476" x="733.1099" y="640.1606">- _links.next</text><text fill="#000000" font-family="sans-serif" font-size="13" lengthAdjust="spacing" textLength="115.8701" x="733.1099" y="655.2935">- meta.pagination</text><line style="stroke:#000000;stroke-width:1;stroke-dasharray:2.0,2.0;" x1="450.7158" x2="984.2231" y1="669.3594" y2="669.3594"/><text fill="#000000" font-family="sans-serif" font-size="11" font-weight="bold" lengthAdjust="spacing" textLength="152.4263" x="455.7158" y="679.5698">[Count-based Detection]</text><g><line style="stroke:#181818;stroke-width:1;" x1="537.312" x2="579.312" y1="723.4961" y2="723.4961"/><line style="stroke:#181818;stroke-width:1;" x1="579.312" x2="579.312" y1="723.4961" y2="736.4961"/><line style="stroke:#181818;stroke-width:1;" x1="538.312" x2="579.312" y1="736.4961" y2="736.4961"/><polygon fill="#181818" points="548.312,732.4961,538.312,736.4961,548.312,740.4961,544.312,736.4961" style="stroke:#181818;stroke-width:1;"/><text fill="#000000" font-family="sans-serif" font-size="13" lengthAdjust="spacing" textLength="139.8008" x="544.312" y="718.4302">analyzeResultCount()</text></g><path d="M705.8008,688.1641 L705.8008,758.1641 L887.8008,758.1641 L887.8008,698.1641 L877.8008,688.1641 L705.8008,688.1641 " fill="#FEFFDD" style="stroke:#181818;stroke-width:0.5;"/><path d="M877.8008,688.1641 L877.8008,698.1641 L887.8008,698.1641 L877.8008,688.1641 " fill="#FEFFDD" style="stroke:#181818;stroke-width:0.5;"/><text fill="#000000" font-family="sans-serif" font-size="13" lengthAdjust="spacing" textLength="70.4082" x="711.8008" y="705.231">Compares:</text><text fill="#000000" font-family="sans-serif" font-size="13" lengthAdjust="spacing" textLength="141.7114" x="711.8008" y="720.3638">- Result count vs limit</text><text fill="#000000" font-family="sans-serif" font-size="13" lengthAdjust="spacing" textLength="160.4434" x="711.8008" y="735.4966">- Total items vs received</text><text fill="#000000" font-family="sans-serif" font-size="13" lengthAdjust="spacing" textLength="161.3638" x="711.8008" y="750.6294">- Collection size patterns</text><g><polygon fill="#181818" points="339.4702,787.8281,329.4702,791.8281,339.4702,795.8281,335.4702,791.8281" style="stroke:#181818;stroke-width:1;"/><line style="stroke:#181818;stroke-width:1;stroke-dasharray:2.0,2.0;" x1="333.4702" x2="531.312" y1="791.8281" y2="791.8281"/><text fill="#000000" font-family="sans-serif" font-size="13" lengthAdjust="spacing" textLength="93.3804" x="383.7009" y="786.7622">PaginationInfo</text></g><path d="M257.5327,806.8281 L321.9756,806.8281 L321.9756,813.9609 L311.9756,823.9609 L257.5327,823.9609 L257.5327,806.8281 " fill="#EEEEEE" style="stroke:#000000;stroke-width:1.5;"/><rect fill="#FFFFFF" fill-opacity="0.00000" height="200.0625" style="stroke:#000000;stroke-width:1.5;" width="773.3198" x="257.5327" y="806.8281"/><text fill="#000000" font-family="sans-serif" font-size="13" font-weight="bold" lengthAdjust="spacing" textLength="19.4429" x="272.5327" y="819.895">alt</text><text fill="#000000" font-family="sans-serif" font-size="11" font-weight="bold" lengthAdjust="spacing" textLength="137.1079" x="336.9756" y="819.0386">[Pagination Detected]</text><path d="M267.5327,830.9609 L344.1567,830.9609 L344.1567,838.0938 L334.1567,848.0938 L267.5327,848.0938 L267.5327,830.9609 " fill="#EEEEEE" style="stroke:#000000;stroke-width:1.5;"/><rect fill="#FFFFFF" fill-opacity="0.00000" height="168.9297" style="stroke:#000000;stroke-width:1.5;" width="753.3198" x="267.5327" y="830.9609"/><text fill="#000000" font-family="sans-serif" font-size="13" font-weight="bold" lengthAdjust="spacing" textLength="31.624" x="282.5327" y="844.0278">loop</text><text fill="#000000" font-family="sans-serif" font-size="11" font-weight="bold" lengthAdjust="spacing" textLength="164.8765" x="359.1567" y="843.1714">[Until All Pages Retrieved]</text><g><polygon fill="#181818" points="806.0825,890.9258,816.0825,894.9258,806.0825,898.9258,810.0825,894.9258" style="stroke:#181818;stroke-width:1;"/><line style="stroke:#181818;stroke-width:1;" x1="328.4702" x2="812.0825" y1="894.9258" y2="894.9258"/><text fill="#000000" font-family="sans-serif" font-size="13" lengthAdjust="spacing" textLength="124.2236" x="511.1646" y="889.8599">Request Next Page</text></g><path d="M823,853.0938 L823,923.0938 L1005,923.0938 L1005,863.0938 L995,853.0938 L823,853.0938 " fill="#FEFFDD" style="stroke:#181818;stroke-width:0.5;"/><path d="M995,853.0938 L995,863.0938 L1005,863.0938 L995,853.0938 " fill="#FEFFDD" style="stroke:#181818;stroke-width:0.5;"/><text fill="#000000" font-family="sans-serif" font-size="13" lengthAdjust="spacing" textLength="144.7773" x="829" y="870.1606">Automatically adjusts:</text><text fill="#000000" font-family="sans-serif" font-size="13" lengthAdjust="spacing" textLength="161.77" x="829" y="885.2935">- Page/offset parameters</text><text fill="#000000" font-family="sans-serif" font-size="13" lengthAdjust="spacing" textLength="97.9697" x="829" y="900.4263">- Cursor values</text><text fill="#000000" font-family="sans-serif" font-size="13" lengthAdjust="spacing" textLength="126.6104" x="829" y="915.5591">- Limit/size settings</text><g><polygon fill="#181818" points="339.4702,945.7578,329.4702,949.7578,339.4702,953.7578,335.4702,949.7578" style="stroke:#181818;stroke-width:1;"/><line style="stroke:#181818;stroke-width:1;stroke-dasharray:2.0,2.0;" x1="333.4702" x2="817.0825" y1="949.7578" y2="949.7578"/><text fill="#000000" font-family="sans-serif" font-size="13" lengthAdjust="spacing" textLength="99.2075" x="523.6726" y="944.6919">Page Response</text></g><g><line style="stroke:#181818;stroke-width:1;" x1="328.4702" x2="370.4702" y1="978.8906" y2="978.8906"/><line style="stroke:#181818;stroke-width:1;" x1="370.4702" x2="370.4702" y1="978.8906" y2="991.8906"/><line style="stroke:#181818;stroke-width:1;" x1="329.4702" x2="370.4702" y1="991.8906" y2="991.8906"/><polygon fill="#181818" points="339.4702,987.8906,329.4702,991.8906,339.4702,995.8906,335.4702,991.8906" style="stroke:#181818;stroke-width:1;"/><text fill="#000000" font-family="sans-serif" font-size="13" lengthAdjust="spacing" textLength="99.9248" x="335.4702" y="973.8247">mergeResults()</text></g><g><line style="stroke:#181818;stroke-width:1;" x1="328.4702" x2="370.4702" y1="1054.2227" y2="1054.2227"/><line style="stroke:#181818;stroke-width:1;" x1="370.4702" x2="370.4702" y1="1054.2227" y2="1067.2227"/><line style="stroke:#181818;stroke-width:1;" x1="329.4702" x2="370.4702" y1="1067.2227" y2="1067.2227"/><polygon fill="#181818" points="339.4702,1063.2227,329.4702,1067.2227,339.4702,1071.2227,335.4702,1067.2227" style="stroke:#181818;stroke-width:1;"/><text fill="#000000" font-family="sans-serif" font-size="13" lengthAdjust="spacing" textLength="107.9102" x="335.4702" y="1049.1567">processResults()</text></g><path d="M464.9102,1018.8906 L464.9102,1088.8906 L625.9102,1088.8906 L625.9102,1028.8906 L615.9102,1018.8906 L464.9102,1018.8906 " fill="#FEFFDD" style="stroke:#181818;stroke-width:0.5;"/><path d="M615.9102,1018.8906 L615.9102,1028.8906 L625.9102,1028.8906 L615.9102,1018.8906 " fill="#FEFFDD" style="stroke:#181818;stroke-width:0.5;"/><text fill="#000000" font-family="sans-serif" font-size="13" lengthAdjust="spacing" textLength="136.0874" x="470.9102" y="1035.9575">- Combines all pages</text><text fill="#000000" font-family="sans-serif" font-size="13" lengthAdjust="spacing" textLength="140.0166" x="470.9102" y="1051.0903">- Removes duplicates</text><text fill="#000000" font-family="sans-serif" font-size="13" lengthAdjust="spacing" textLength="100.7373" x="470.9102" y="1066.2231">- Orders results</text><text fill="#000000" font-family="sans-serif" font-size="13" lengthAdjust="spacing" textLength="104.3301" x="470.9102" y="1081.356">- Handles errors</text><g><polygon fill="#181818" points="62.1118,1111.5547,52.1118,1115.5547,62.1118,1119.5547,58.1118,1115.5547" style="stroke:#181818;stroke-width:1;"/><line style="stroke:#181818;stroke-width:1;stroke-dasharray:2.0,2.0;" x1="56.1118" x2="322.4702" y1="1115.5547" y2="1115.5547"/><text fill="#000000" font-family="sans-serif" font-size="13" lengthAdjust="spacing" textLength="133.0151" x="120.7834" y="1110.4888">Complete Result Set</text></g><path d="M5,1128.5547 L5,1334.5547 L862,1334.5547 L862,1138.5547 L852,1128.5547 L5,1128.5547 " fill="#FEFFDD" style="stroke:#181818;stroke-width:0.5;"/><path d="M852,1128.5547 L852,1138.5547 L862,1138.5547 L852,1128.5547 " fill="#FEFFDD" style="stroke:#181818;stroke-width:0.5;"/><text fill="#000000" font-family="sans-serif" font-size="13" lengthAdjust="spacing" textLength="211.2437" x="323.6519" y="1145.6216">Automatic Pagination Detection:</text><text fill="#000000" font-family="sans-serif" font-size="13" lengthAdjust="spacing" textLength="132.5073" x="323.6519" y="1160.7544">1. Configured Paths:</text><text fill="#000000" font-family="sans-serif" font-size="13" lengthAdjust="spacing" textLength="76.4067" x="336.0488" y="1175.8872">- meta.total</text><text fill="#000000" font-family="sans-serif" font-size="13" lengthAdjust="spacing" textLength="85.9219" x="336.0488" y="1191.02">- meta.pages</text><text fill="#000000" font-family="sans-serif" font-size="13" lengthAdjust="spacing" textLength="111.1729" x="336.0488" y="1206.1528">- pagination.next</text><text fill="#000000" font-family="sans-serif" font-size="13" lengthAdjust="spacing" textLength="137.9536" x="323.6519" y="1221.2856">2. Common Patterns:</text><text fill="#000000" font-family="sans-serif" font-size="13" lengthAdjust="spacing" textLength="78.2476" x="336.0488" y="1236.4185">- _links.next</text><text fill="#000000" font-family="sans-serif" font-size="13" lengthAdjust="spacing" textLength="100.5151" x="336.0488" y="1251.5513">- next_page_url</text><text fill="#000000" font-family="sans-serif" font-size="13" lengthAdjust="spacing" textLength="92.8535" x="336.0488" y="1266.6841">- hasMore flag</text><text fill="#000000" font-family="sans-serif" font-size="13" lengthAdjust="spacing" textLength="117.2158" x="323.6519" y="1281.8169">3. Count Analysis:</text><text fill="#000000" font-family="sans-serif" font-size="13" lengthAdjust="spacing" textLength="150.687" x="336.0488" y="1296.9497">- results.length vs total</text><text fill="#000000" font-family="sans-serif" font-size="13" lengthAdjust="spacing" textLength="137.6743" x="336.0488" y="1312.0825">- limit/offset patterns</text><text fill="#000000" font-family="sans-serif" font-size="13" lengthAdjust="spacing" textLength="181.3398" x="336.0488" y="1327.2153">- collection size consistency</text><text fill="#888888" font-family="sans-serif" font-size="10" lengthAdjust="spacing" textLength="81.4648" x="958.3877" y="14.2822">Open Connector</text><text fill="#888888" font-family="sans-serif" font-size="10" lengthAdjust="spacing" textLength="81.4648" x="479.1938" y="1390.8604">Open Connector</text><!--SRC=[ZLPBRnit4BxlhnZa906MZAGt7GgeIWeRo4E8t5uDUdUqovfBRaYk4kVNzoEN-xI2rWV3uWn7tsDcQ2-zOZgAKchXfT7qdZtdyI-X2xh3BoLrcPsDyMntzALXJGUZDPACpIeMnPNZh17MormsGdjwisyQ9VDO_Wq9H_WyJpW8fKviBpBdc70upUCZl8Y7RSmwtispJgQrgS3Y_eSVmAw5eltnlaDmlCyozomrqaHDZh-rh7F-nCw9alTAbfforhWroRBi6gDTd_K7A_DzRwtvJjwsd6KQ2f6vi0q4R-9tq48O4gqtDPZaOFn2HTJQKJFAxojhshBQuUhRRRXubcLhOspp91mNwH8-8-NTbhucL2ZY0yjP_BSORvMdtBHGGa245oTTnhe8SBCCK6dpEnJVKS2qSb746q92OwJsDrIphqnnWme1opeJA7uHe0gNiiCftCRbYr2omEbgtUbWPLbvCcTOGVHt2ZhgogTQYLVWkg4FMZmfq7DU-DR58oX8odIDqnsqle8hgPT64XqAfE_eNailuVJTmyCHtE6hyraej4ai_vJM-T3mF4ZN5pZUxP9wOyEjUjSdnD5u2v8u8JfKd3yxEiFcYQ5I5m6liMxXARZ2iihH2WgBhJTUAEZky-swS_PWwXe5ag_8q_m3VZnY7f_T-egx5qUn2adFzSHZWOnhdVH-qYa43hq6UI0omZm6bAjrJ1ffnuz47usvnlbiIFGf-PAmrCCinPGUA2iNLb6a-_yW1e7IXLyYFB6mIEz0vhscFTQKD8Yiv3Flqk66WkAtZUMBD6s8GVWXrlcm3Id3MNHoKNp6xX2C-WzkSKX_ScTjlF0hQX00gudT27ZP3qhMSeJtC7P725hEMLwu6E87erHQ_ax-75QAc_FGHPO5j6cWnbcvX-rPmRCv2RttwdL9NwcCQUWlp3CMir9n9XqOU2jvH0MMutIdWQRF43tc3qclj0a_-zcs5SK_hVE3M1tbKEJMdC-EFSKr3u3MpL8EhNLe7MmuVFSiyZ6eUnkbmdsFTtACzt8DM2OxQBvzvZn3l6PR9l_xjWwgH-N7hCQQ74_Hc3VJ8BXPFqaDIS4-T3ntM_KhrtYa71LjzogduoyM3tdeYLWj7dMFhIF68sVTVDq6Hvfc5rjGGRE-yqxifoqGteYhx-9WpTN_FLwlohY4adLfpkAkonQJrpkqcSnuFwFZJkrtnb3mrJ1ti_yOAZwsTlYQIhXFnZATbIYx3Hm7bFRfOHqA9XstYdNfgs4rz-4ubsFVJSOCmNmnXbYWAEtn7yfBRyA_]--></g></svg>