<svg xmlns="http://www.w3.org/2000/svg" xmlns:xlink="http://www.w3.org/1999/xlink" contentStyleType="text/css" data-diagram-type="SEQUENCE" height="529px" preserveAspectRatio="none" style="width:654px;height:529px;background:#FFFFFF;" version="1.1" viewBox="0 0 654 529" width="654px" zoomAndPan="magnify"><title>Simple Call Service Flow</title><defs/><g><text fill="#000000" font-family="sans-serif" font-size="14" font-weight="bold" lengthAdjust="spacing" textLength="192.8418" x="226.8306" y="40.6357">Simple Call Service Flow</text><g><title>CallService</title><rect fill="#FFFFFF" height="197.0625" style="stroke:#181818;stroke-width:1;" width="10" x="318.4702" y="167.6328"/></g><g><title>Application</title><rect fill="#FFFFFF" fill-opacity="0.00000" height="392.125" width="8" x="47.1118" y="86.2344"/><line style="stroke:#181818;stroke-width:0.5;stroke-dasharray:5.0,5.0;" x1="51" x2="51" y1="86.2344" y2="478.3594"/></g><g><title>CallService</title><rect fill="#FFFFFF" fill-opacity="0.00000" height="392.125" width="8" x="319.4702" y="86.2344"/><line style="stroke:#181818;stroke-width:0.5;stroke-dasharray:5.0,5.0;" x1="322.5327" x2="322.5327" y1="86.2344" y2="478.3594"/></g><g><title>Source</title><rect fill="#FFFFFF" fill-opacity="0.00000" height="392.125" width="8" x="410.8105" y="86.2344"/><line style="stroke:#181818;stroke-width:0.5;stroke-dasharray:5.0,5.0;" x1="414.6147" x2="414.6147" y1="86.2344" y2="478.3594"/></g><g><title>External API</title><rect fill="#FFFFFF" fill-opacity="0.00000" height="392.125" width="8" x="586.9072" y="86.2344"/><line style="stroke:#181818;stroke-width:0.5;stroke-dasharray:5.0,5.0;" x1="590.4424" x2="590.4424" y1="86.2344" y2="478.3594"/></g><g><rect fill="#E2E2F0" height="30.2969" rx="2.5" ry="2.5" style="stroke:#181818;stroke-width:0.5;" width="92.2236" x="5" y="54.9375"/><text fill="#000000" font-family="sans-serif" font-size="14" lengthAdjust="spacing" textLength="78.2236" x="12" y="74.9326">Application</text></g><g><rect fill="#E2E2F0" height="30.2969" rx="2.5" ry="2.5" style="stroke:#181818;stroke-width:0.5;" width="92.2236" x="5" y="477.3594"/><text fill="#000000" font-family="sans-serif" font-size="14" lengthAdjust="spacing" textLength="78.2236" x="12" y="497.3545">Application</text></g><g><rect fill="#E2E2F0" height="30.2969" rx="2.5" ry="2.5" style="stroke:#181818;stroke-width:0.5;" width="91.875" x="277.5327" y="54.9375"/><text fill="#000000" font-family="sans-serif" font-size="14" lengthAdjust="spacing" textLength="77.875" x="284.5327" y="74.9326">CallService</text></g><g><rect fill="#E2E2F0" height="30.2969" rx="2.5" ry="2.5" style="stroke:#181818;stroke-width:0.5;" width="91.875" x="277.5327" y="477.3594"/><text fill="#000000" font-family="sans-serif" font-size="14" lengthAdjust="spacing" textLength="77.875" x="284.5327" y="497.3545">CallService</text></g><g><rect fill="#E2E2F0" height="30.2969" rx="2.5" ry="2.5" style="stroke:#181818;stroke-width:0.5;" width="62.3916" x="383.6147" y="54.9375"/><text fill="#000000" font-family="sans-serif" font-size="14" lengthAdjust="spacing" textLength="48.3916" x="390.6147" y="74.9326">Source</text></g><g><rect fill="#E2E2F0" height="30.2969" rx="2.5" ry="2.5" style="stroke:#181818;stroke-width:0.5;" width="62.3916" x="383.6147" y="477.3594"/><text fill="#000000" font-family="sans-serif" font-size="14" lengthAdjust="spacing" textLength="48.3916" x="390.6147" y="497.3545">Source</text></g><g><rect fill="#E2E2F0" height="30.2969" rx="2.5" ry="2.5" style="stroke:#181818;stroke-width:0.5;" width="98.9297" x="541.4424" y="54.9375"/><text fill="#000000" font-family="sans-serif" font-size="14" lengthAdjust="spacing" textLength="84.9297" x="548.4424" y="74.9326">External API</text></g><g><rect fill="#E2E2F0" height="30.2969" rx="2.5" ry="2.5" style="stroke:#181818;stroke-width:0.5;" width="98.9297" x="541.4424" y="477.3594"/><text fill="#000000" font-family="sans-serif" font-size="14" lengthAdjust="spacing" textLength="84.9297" x="548.4424" y="497.3545">External API</text></g><g><title>CallService</title><rect fill="#FFFFFF" height="197.0625" style="stroke:#181818;stroke-width:1;" width="10" x="318.4702" y="167.6328"/></g><path d="M7,101.2344 L7,141.2344 L366,141.2344 L366,111.2344 L356,101.2344 L7,101.2344 " fill="#FEFFDD" style="stroke:#181818;stroke-width:0.5;"/><path d="M356,101.2344 L356,111.2344 L366,111.2344 L356,101.2344 " fill="#FEFFDD" style="stroke:#181818;stroke-width:0.5;"/><text fill="#000000" font-family="sans-serif" font-size="13" lengthAdjust="spacing" textLength="304.4463" x="18.4851" y="118.3013">Application requests data from an external API</text><text fill="#000000" font-family="sans-serif" font-size="13" lengthAdjust="spacing" textLength="327.4375" x="18.4851" y="133.4341">through the CallService using a configured Source</text><g><polygon fill="#181818" points="306.4702,163.6328,316.4702,167.6328,306.4702,171.6328,310.4702,167.6328" style="stroke:#181818;stroke-width:1;"/><line style="stroke:#181818;stroke-width:1;" x1="51.1118" x2="312.4702" y1="167.6328" y2="167.6328"/><text fill="#000000" font-family="sans-serif" font-size="13" lengthAdjust="spacing" textLength="248.3584" x="60.6118" y="162.5669">call(source, endpoint, method, config)</text></g><g><polygon fill="#181818" points="402.8105,192.7656,412.8105,196.7656,402.8105,200.7656,406.8105,196.7656" style="stroke:#181818;stroke-width:1;"/><line style="stroke:#181818;stroke-width:1;" x1="328.4702" x2="408.8105" y1="196.7656" y2="196.7656"/><text fill="#000000" font-family="sans-serif" font-size="13" lengthAdjust="spacing" textLength="62.3403" x="340.4702" y="191.6997">validate()</text></g><path d="M419,209.7656 L419,279.7656 L642,279.7656 L642,219.7656 L632,209.7656 L419,209.7656 " fill="#FEFFDD" style="stroke:#181818;stroke-width:0.5;"/><path d="M632,209.7656 L632,219.7656 L642,219.7656 L632,209.7656 " fill="#FEFFDD" style="stroke:#181818;stroke-width:0.5;"/><text fill="#000000" font-family="sans-serif" font-size="13" lengthAdjust="spacing" textLength="202.5029" x="425" y="226.8325">Validates source configuration:</text><text fill="#000000" font-family="sans-serif" font-size="13" lengthAdjust="spacing" textLength="105.4346" x="425" y="241.9653">- Enabled status</text><text fill="#000000" font-family="sans-serif" font-size="13" lengthAdjust="spacing" textLength="85.103" x="425" y="257.0981">- API location</text><text fill="#000000" font-family="sans-serif" font-size="13" lengthAdjust="spacing" textLength="104.2539" x="425" y="272.231">- Authentication</text><g><polygon fill="#181818" points="578.9072,302.4297,588.9072,306.4297,578.9072,310.4297,582.9072,306.4297" style="stroke:#181818;stroke-width:1;"/><line style="stroke:#181818;stroke-width:1;" x1="328.4702" x2="584.9072" y1="306.4297" y2="306.4297"/><text fill="#000000" font-family="sans-serif" font-size="13" lengthAdjust="spacing" textLength="91.019" x="414.1792" y="301.3638">HTTP Request</text></g><g><polygon fill="#181818" points="339.4702,331.5625,329.4702,335.5625,339.4702,339.5625,335.4702,335.5625" style="stroke:#181818;stroke-width:1;"/><line style="stroke:#181818;stroke-width:1;stroke-dasharray:2.0,2.0;" x1="333.4702" x2="589.9072" y1="335.5625" y2="335.5625"/><text fill="#000000" font-family="sans-serif" font-size="13" lengthAdjust="spacing" textLength="238.437" x="340.4702" y="330.4966">HTTP Response with array of objects</text></g><g><polygon fill="#181818" points="62.1118,360.6953,52.1118,364.6953,62.1118,368.6953,58.1118,364.6953" style="stroke:#181818;stroke-width:1;"/><line style="stroke:#181818;stroke-width:1;stroke-dasharray:2.0,2.0;" x1="56.1118" x2="322.4702" y1="364.6953" y2="364.6953"/><text fill="#000000" font-family="sans-serif" font-size="13" lengthAdjust="spacing" textLength="146.3389" x="114.1216" y="359.6294">return array of objects</text></g><path d="M5,377.6953 L5,462.6953 L635,462.6953 L635,387.6953 L625,377.6953 L5,377.6953 " fill="#FEFFDD" style="stroke:#181818;stroke-width:0.5;"/><path d="M625,377.6953 L625,387.6953 L635,387.6953 L625,377.6953 " fill="#FEFFDD" style="stroke:#181818;stroke-width:0.5;"/><text fill="#000000" font-family="sans-serif" font-size="13" lengthAdjust="spacing" textLength="202.4204" x="214.4758" y="394.7622">Simple flow for retrieving data:</text><text fill="#000000" font-family="sans-serif" font-size="13" lengthAdjust="spacing" textLength="193.4448" x="214.4758" y="409.895">1. App provides source config</text><text fill="#000000" font-family="sans-serif" font-size="13" lengthAdjust="spacing" textLength="199.5386" x="214.4758" y="425.0278">2. CallService validates source</text><text fill="#000000" font-family="sans-serif" font-size="13" lengthAdjust="spacing" textLength="109.186" x="214.4758" y="440.1606">3. Makes API call</text><text fill="#000000" font-family="sans-serif" font-size="13" lengthAdjust="spacing" textLength="173.3354" x="214.4758" y="455.2935">4. Returns array of objects</text><text fill="#888888" font-family="sans-serif" font-size="10" lengthAdjust="spacing" textLength="81.4648" x="565.0381" y="14.2822">Open Connector</text><text fill="#888888" font-family="sans-serif" font-size="10" lengthAdjust="spacing" textLength="81.4648" x="282.519" y="518.9385">Open Connector</text><!--SRC=[RL9BRzim3BxhLn0zjK0IO8-J3mEoeCDwA1RCnUwiJTjQ5KgJQ6VxzwCijqtIdWoJ7ydl8R7Y26fx2FhPeNDGKvniG_3D-QFfl1UA5Vm8nB3ppDI8ZsOWRDyfcu1HR6C3ii3LDWHd6nJh-GemWVwV0_AvvTeCsDNd_TgFSMbTT6x_AYj61zlzNTczlpCcFLbM61uWqP-HkA5xIWbxsZhRCpJ4EdM2YfI2v_IC-aggU1kZFuB4aOnXrGv-efYfhp8zW1DHEgzNaYHeKH2ww0-037J2JGTaY7xi1_qMVv_j7PFb7X0QpvtjnqWj5Bs6kCsNZT5RiFwYTojeTF8wpVqLA21uoxA20ydWszMovCPW8tP2PQrSpQxEqpeyeRDAaQvlYgHe-q70Tv05_LgQ2Shw5qApnaeHQxXbV7HAC0dAcEQIYWFdYn6bCAf2biMRLn65XS8h-Fxmi8UVnJIJ5wmNTKkZf057AmDWZFWlS_IFl_LnfR8eRmgXKkTbZFmMrDAP0nS1ba2MjzvfsD3vc7T5IrDE8-UO5N_Ov048qK-slNH6-nytPr5E5nOgujC6xl69veSvXwUrpnlLc7cdjyGNk_u3]--></g></svg>